<svg width="1024" height="1024" viewBox="0 0 1024 1024" fill="none" xmlns="http://www.w3.org/2000/svg">
<mask id="path-1-outside-1_424_3" maskUnits="userSpaceOnUse" x="109" y="159" width="830" height="716" fill="black">
<rect fill="white" x="109" y="159" width="830" height="716"/>
<path d="M854 641L852 644V650V693L855 695H862V723H860L858 725V730L860 732H862V770H860L857 773V782L860 785H862V822H809V814L807 812H796L794 814V817H723L721 819V822H703V819L701 817H695L693 819V822H646V784L643 782H632L629 784V826H567L563 820H561L552 828L525 840L472 862V869L350 827H336L299 751H235V691H289H290L302 679V488V485H256V477L254 475H226L224 477V485H169V396L167 394H157V354L163 348V325L161 322H113V241L121 232H160L162 230V173H209H287.5L290 171V168H346V177H448V215L450 217H550L552 215V163H617L619 165H779V193H774L772 195V203L774 205H876V232L878 234H922V320L924 322H935V424H928L926 426V600L924 602V641H865H859.5H854Z"/>
</mask>
<path d="M854 641L852 644V650V693L855 695H862V723H860L858 725V730L860 732H862V770H860L857 773V782L860 785H862V822H809V814L807 812H796L794 814V817H723L721 819V822H703V819L701 817H695L693 819V822H646V784L643 782H632L629 784V826H567L563 820H561L552 828L525 840L472 862V869L350 827H336L299 751H235V691H289H290L302 679V488V485H256V477L254 475H226L224 477V485H169V396L167 394H157V354L163 348V325L161 322H113V241L121 232H160L162 230V173H209H287.5L290 171V168H346V177H448V215L450 217H550L552 215V163H617L619 165H779V193H774L772 195V203L774 205H876V232L878 234H922V320L924 322H935V424H928L926 426V600L924 602V641H865H859.5H854Z" fill="#030310"/>
<path d="M854 641L852 644V650V693L855 695H862V723H860L858 725V730L860 732H862V770H860L857 773V782L860 785H862V822H809V814L807 812H796L794 814V817H723L721 819V822H703V819L701 817H695L693 819V822H646V784L643 782H632L629 784V826H567L563 820H561L552 828L525 840L472 862V869L350 827H336L299 751H235V691H289H290L302 679V488V485H256V477L254 475H226L224 477V485H169V396L167 394H157V354L163 348V325L161 322H113V241L121 232H160L162 230V173H209H287.5L290 171V168H346V177H448V215L450 217H550L552 215V163H617L619 165H779V193H774L772 195V203L774 205H876V232L878 234H922V320L924 322H935V424H928L926 426V600L924 602V641H865H859.5H854Z" stroke="#89043D" stroke-width="8" mask="url(#path-1-outside-1_424_3)"/>
<path d="M689 624L689 668L701.5 668L701.5 691L755 688.5L755 642.857L755 624L689 624Z" fill="url(#paint0_linear_424_3)"/>
<path d="M459 276L506.984 276L578 276L578 259.429L578 246L539.5 246L501 246L501 247L459 247L459 276Z" fill="url(#paint1_linear_424_3)"/>
<path d="M271.5 416V416.3L271.615 416.577L281.615 440.577L282 441.5H283H339.5V489V490.5H341H358.5V504V505.5H360H377.5V525V526.5H379H389H390.5V525V509.5H404H405.5V508V500V498.5H404H390.5V431.5H400H401.5V430V350.5H433H434.5V349V329V327.5H433H344H342.5V329V396.5H273H271.5V398V416Z" fill="#030310" stroke="#89043D" stroke-width="3"/>
<path d="M527.5 511V512.5H529H531.5V533V534.5H533H546.5V594.5H530H528.5V596V598V599.5H530H553.5V642V643.5H555H612H613.5V642V622.5H742.5V647V648.5H744H752H753.5V647V565.5H783H784.5V564V546.5H855H855.621L856.061 546.061L862.061 540.061L862.5 539.621V539V313.5H866H867.5V312V299V298.406L867.093 297.973L836.093 264.973L835.649 264.5H835H783.5V260V258.5H782H759H758.47L758.057 258.833L732.057 279.833L731.5 280.283V281V371V372.5H733H752.5V534.5H568.5V509V507.5H567H529H527.5V509V511Z" fill="#030310" stroke="#89043D" stroke-width="3"/>
<path d="M374.5 652V650.5H373H344.621L343.5 649.379V585.621L344.621 584.5H375H376.5V583V544.621L377.621 543.5H381.379L382.5 544.621V580V581.5H384H390.379L391.5 582.621V585.379L390.379 586.5H389H387.5V588V651V652.5H389H404H405.5V651V639.621L406.621 638.5H419.379L420.5 639.621V651V652.5H422H477.43L485.5 659.674V682.379L484.379 683.5H480H478.5V685V759V760.5H480H483.379L484.5 761.621V778.286L469.467 790.5H446.621L445.5 789.379V783V781.5H444H375.621L374.5 780.379V763V761.5H373H361.621L360.5 760.379V675.621L361.621 674.5H373H374.5V673V652Z" fill="#030310" stroke="#89043D" stroke-width="3"/>
<path d="M703.057 689.499L754.591 687.536L755.658 689.671L756.073 690.5H757H814H815.5V689V604.621L816.621 603.5H899.379L900.5 604.621V613.379L899.379 614.5H825H823.5V616V729.379L822.379 730.5H699H697.5V732V770V771.5H699H700.379L701.5 772.621V782.379L700.379 783.5H699H697.5V785V792.379L695.379 794.5H672.648L671.5 793.281V762.621L672.621 761.5H681H682.5V760V723V721.5H681H663.621L662.5 720.379V694.621L663.621 693.5H687H688.5V692V668.454L689.803 666.5H700.197L701.5 668.454V688V689.558L703.057 689.499Z" fill="#030310" stroke="#89043D" stroke-width="3"/>
<path d="M498 511.5H499.5V510V508V506.5H498H430H428.5V508V581.5H418H416.5V583V586V587.5H418H428.5V597V598.5H430H452.5V609V610.5H454H463H464.5V609V598.5H497H498.5V597V595V593.5H497H481.5V567.5H489H490.5V566V561V559.5H489H482.5V511.5H498Z" fill="#030310" stroke="#89043D" stroke-width="3"/>
<path d="M759.5 196V194.5H758H621H619.5V196V275.5H505H503.5V277V378V378.395L503.695 378.74L520.695 408.74L521.126 409.5H522H555H556.5V408V407.5H644H644.364L644.688 407.333L675.688 391.333L676.5 390.914V390V353V351.5H675H673.5V310.5H689H690.5V309V300V298.5H689H675.5V284.5H685H686.5V283V230V228.5H685H674.5V203.5H758H759.5V202V196Z" fill="#030310" stroke="#89043D" stroke-width="3"/>
<path d="M252.5 398V396.5H251H193H191.5V398V436V437.5H193H219H220.5V436V403.5H251H252.5V402V398Z" fill="#030310" stroke="#89043D" stroke-width="3"/>
<path d="M340.5 231V232.5H342H401H402.5V231V216V214.5H401H342H340.5V216V231Z" fill="#030310" stroke="#89043D" stroke-width="3"/>
<path d="M354.5 273V271.5H353H344H342.5V273V285V286.5H344H353H354.5V285V283.5H358H359.5V282V276V274.5H358H354.5V273Z" fill="#030310" stroke="#89043D" stroke-width="3"/>
<path d="M723.5 782.379V772.621L724.621 771.5H734.379L735.5 772.621V782.379L734.379 783.5H724.621L723.5 782.379Z" fill="#030310" stroke="#89043D" stroke-width="3"/>
<path d="M760.5 782.379V772.621L761.621 771.5H771.379L772.5 772.621V782.379L771.379 783.5H761.621L760.5 782.379Z" fill="#030310" stroke="#89043D" stroke-width="3"/>
<path d="M795.5 782.379V772.621L796.621 771.5H806.379L807.5 772.621V782.379L806.379 783.5H796.621L795.5 782.379Z" fill="#030310" stroke="#89043D" stroke-width="3"/>
<path d="M302 486.5H319" stroke="#89043D" stroke-width="3"/>
<path d="M254 396.5H267" stroke="#89043D" stroke-width="1.5"/>
<rect x="267" y="395" width="3" height="3" fill="#89043D"/>
<path d="M295 443V460" stroke="#89043D" stroke-width="4"/>
<path d="M222 251H199V275" stroke="#89043D" stroke-width="2"/>
<path d="M275 275L275 251L251 251" stroke="#89043D" stroke-width="2"/>
<path d="M252 334L275 334L275 310" stroke="#89043D" stroke-width="2"/>
<path d="M199 310L199 334L222 334" stroke="#89043D" stroke-width="2"/>
<path d="M160 230H182L187 224" stroke="#89043D" stroke-width="3"/>
<path d="M158.5 269V294" stroke="#89043D" stroke-width="3"/>
<path d="M228 173V214H285M296 214H309M320 214H339" stroke="#89043D" stroke-width="2"/>
<path d="M285 213.5H296" stroke="#89043D"/>
<path d="M309 213.5H320" stroke="#89043D"/>
<path d="M259.5 173V192M259.5 204V213" stroke="#89043D" stroke-width="3"/>
<path d="M347.5 177V191M347.5 208V213" stroke="#89043D" stroke-width="3"/>
<path d="M897.5 426V486" stroke="#89043D"/>
<path d="M898 486V558" stroke="#89043D" stroke-width="2"/>
<path d="M898.5 558V602" stroke="#89043D" stroke-width="3"/>
<path d="M677 508H570" stroke="#89043D" stroke-width="2"/>
<path d="M656 448H460V246" stroke="#89043D" stroke-width="2"/>
<path d="M526 506V571" stroke="#89043D" stroke-width="2"/>
<path d="M500 509V571" stroke="#89043D" stroke-width="2"/>
<path d="M784 567V580H760M754.5 580H760M760 580V588M754.5 592H760V588M760 588H764.5V581" stroke="#89043D" stroke-width="2"/>
<path d="M897 577H874V584H799V689" stroke="#89043D" stroke-width="2"/>
<path d="M741 641H707" stroke="#89043D" stroke-width="2"/>
<path d="M568 645V671H539V608" stroke="#89043D" stroke-width="2"/>
<path d="M637 782V723H642.5V710H661.163" stroke="#89043D" stroke-width="2"/>
<path d="M459.5 369V389.5M428.5 415.5H459.5V389.5M428.5 415.5V389.5H459.5M428.5 415.5V431.5M428.5 450V431.5M428.5 431.5H403" stroke="#89043D" stroke-width="3"/>
<path d="M429.5 450V486" stroke="#89043D"/>
<path d="M429.5 477H434V492H430" stroke="#89043D" stroke-width="2"/>
<path d="M428.5 486V505" stroke="#89043D" stroke-width="3"/>
<path d="M446.5 274V245V244.5H502" stroke="#89043D" stroke-width="3"/>
<path d="M579 244H502" stroke="#89043D" stroke-width="2"/>
<path d="M445 244H434V326" stroke="#89043D" stroke-width="2"/>
<path d="M437.5 350.5V327.5H459.5V350.5H437.5Z" stroke="#89043D" stroke-width="3"/>
<path d="M434 352V414" stroke="#89043D" stroke-width="2"/>
<path d="M442 388V378L420 376V352" stroke="#89043D" stroke-width="2"/>
<path d="M869 314H888V266" stroke="#89043D" stroke-width="2"/>
<path d="M827 205V227H803M803 227V205M803 227V229H739V205" stroke="#89043D" stroke-width="2"/>
<path d="M688 312V325L674.5 332" stroke="#89043D" stroke-width="2"/>
<path d="M676.5 165V172M676.5 187V193" stroke="#89043D" stroke-width="2"/>
<path d="M574.5 163V206" stroke="#89043D" stroke-width="2"/>
<path d="M618 197H616L609 204V224" stroke="#89043D" stroke-width="2"/>
<path d="M401 277V234H404V267L411 274H502V277H401Z" fill="#89043D"/>
<path d="M352 583V519" stroke="#89043D" stroke-width="3"/>
<path d="M302 582H315V564" stroke="#89043D" stroke-width="3"/>
<path d="M568 670V645H552V608H540V670H568Z" fill="url(#paint2_linear_424_3)"/>
<path d="M378.5 528V531" stroke="#89043D" stroke-width="3"/>
<path d="M659.5 707.5H660V707V695V694.5H659.5H644H643.5V695V698.5H638.5H638V699V707V707.5H638.5H659.5Z" fill="#030310" stroke="#89043D"/>
<path d="M488 687V686.5H487.5H482.5H482V687V714V714.5H482.5H487.5H488V714V687Z" fill="#030310" stroke="#89043D"/>
<circle cx="485" cy="721.5" r="3" fill="#030310" stroke="#89043D"/>
<circle cx="439.5" cy="788" r="4" fill="#030310" stroke="#89043D"/>
<path d="M487.5 731H482.5V758H487.5V731Z" fill="#030310" stroke="#89043D"/>
<path d="M466.5 793.5V793H466H447H446.5V793.5V800.5V801H447H466H466.5V800.5V793.5Z" fill="#030310" stroke="#89043D"/>
<path d="M481 840.5L467.5 841.5L468.5 856L482 855L481 840.5Z" fill="#030310"/>
<path d="M474.5 826L459 828L460.5 841L476 839L474.5 826Z" fill="#030310"/>
<path d="M481 840.5L467.5 841.5L468.5 856L482 855L481 840.5Z" stroke="#89043D"/>
<path d="M474.5 826L459 828L460.5 841L476 839L474.5 826Z" stroke="#89043D"/>
<path d="M599 787L603.5 806.5L587 809.5L592 818L580 825L569.5 810L583 801L582 791L599 787Z" fill="#030310"/>
<path d="M587 809.5L603.5 806.5L599 787L582 791L583 801M587 809.5L592 818L580 825L569.5 810L583 801M587 809.5L583 801" stroke="#89043D"/>
<rect x="524.5" y="745" width="19" height="17" fill="#030310" stroke="#89043D"/>
<path d="M514.598 775.298L514.898 775.702L515.3 775.4L531.3 763.4L531.713 763.09L531.39 762.688L519.443 747.753L519.427 747.734L519.41 747.716L518.858 747.151L518.541 746.827L518.188 747.11L503.188 759.11L502.811 759.411L503.098 759.798L514.598 775.298Z" fill="#030310" stroke="#89043D"/>
<path d="M606.854 758.854L607.213 758.494L606.847 758.14L592.347 744.14L591.981 743.786L591.634 744.16L585.134 751.16L584.806 751.513L585.146 751.854L599.146 765.854L599.5 766.207L599.854 765.854L606.854 758.854Z" fill="#030310" stroke="#89043D"/>
<path d="M636 638H636.5V637.5V626V625.5H636H617.5H617V626V647.5H599.5H599V648V661V661.5H599.5H627.5H628V661V638H636Z" fill="#030310" stroke="#89043D"/>
<path d="M592.683 770.465L593.142 770.285L592.968 769.823L585.968 751.323L585.794 750.864L585.332 751.029L571.332 756.029L570.856 756.199L571.031 756.673L578.031 775.673L578.207 776.152L578.683 775.965L592.683 770.465Z" fill="#030310" stroke="#89043D"/>
<path d="M339 328H335V338H339V328Z" fill="#030310" stroke="#89043D"/>
<circle cx="167" cy="179" r="3.5" fill="#030310" stroke="#89043D"/>
<path d="M190 219V213.5H184L178 212L171.5 211.5L163 209.5V218.5L169 219L170.5 220H176.5V218H183L186.5 219H190Z" fill="#030310" stroke="#89043D"/>
<path d="M224 277V255H203V277H224Z" fill="#030310" stroke="#89043D"/>
<path d="M271 277V255H250V277H271Z" fill="#030310" stroke="#89043D"/>
<path d="M271 331V297H250V331H271Z" fill="#030310" stroke="#89043D"/>
<path d="M248.5 330V313H243V330H248.5Z" fill="#030310" stroke="#89043D"/>
<path d="M163.5 354.5H158.5V359.5H163.5V354.5Z" fill="#030310" stroke="#89043D"/>
<path d="M202 196L164 190L163 207L201 213L202 196Z" fill="#030310" stroke="#89043D"/>
<path d="M223 477H195V484H223V477Z" fill="#030310" stroke="#89043D"/>
<path d="M249 407H223V422H249V407Z" fill="#030310" stroke="#89043D"/>
<path d="M712.5 485H698V500H712.5V485Z" fill="#030310"/>
<path d="M702 481.5L688.5 491.5L680 479L692.5 469.5L702 481.5Z" fill="#030310"/>
<path d="M712.5 485H698V500H712.5V485Z" stroke="#89043D"/>
<path d="M702 481.5L688.5 491.5L680 479L692.5 469.5L702 481.5Z" stroke="#89043D"/>
<path d="M692.5 468.5L704 483L713.5 475.5L702 461L692.5 468.5Z" fill="#030310"/>
<path d="M718.5 454.5L706.5 464.5L697 453L709 443L718.5 454.5Z" fill="#030310"/>
<path d="M692.5 468.5L704 483L713.5 475.5L702 461L692.5 468.5Z" stroke="#89043D"/>
<path d="M718.5 454.5L706.5 464.5L697 453L709 443L718.5 454.5Z" stroke="#89043D"/>
<path d="M672.5 532H660V523H672.5V532Z" fill="#030310" stroke="#89043D"/>
<path d="M570 533L603.468 533L653 533L653 518.714L653 508L570 508L570 533Z" fill="url(#paint3_linear_424_3)"/>
<circle cx="929.5" cy="327.5" r="4" fill="#030310" stroke="#89043D"/>
<path d="M737.5 210H729.5V219H737.5V210Z" fill="#030310"/>
<path d="M728 220.5H729.5H737.5V228H728V220.5Z" fill="#030310"/>
<path d="M737.5 210H729.5V219H737.5V210Z" stroke="#89043D"/>
<path d="M728 220.5H729.5H737.5V228H728V220.5Z" stroke="#89043D"/>
<path d="M476 330H463V345L476 345.132V330Z" fill="#030310"/>
<path d="M469.5 437.5H462.5V445H469.5V437.5Z" fill="#030310"/>
<path d="M476 330H463V345L476 345.132V330Z" stroke="#89043D"/>
<path d="M469.5 437.5H462.5V445H469.5V437.5Z" stroke="#89043D"/>
<path d="M486 497H466V505H486V497Z" fill="#030310" stroke="#89043D"/>
<path d="M407.5 434.5H393.5V448.5H407.5V434.5Z" fill="#030310" stroke="#89043D"/>
<path d="M374.5 508.5H360.5V522.5H374.5V508.5Z" fill="#030310" stroke="#89043D"/>
<path d="M372.683 572.357L363.357 571L362 580.327L371.327 581.683L372.683 572.357Z" fill="#030310" stroke="#89043D"/>
<path d="M493.925 570.5H484.5V579.925H493.925V570.5Z" fill="#030310" stroke="#89043D"/>
<defs>
<linearGradient id="paint0_linear_424_3" x1="751.5" y1="666" x2="690.235" y2="643.184" gradientUnits="userSpaceOnUse">
<stop stop-color="#535353" stop-opacity="0"/>
<stop offset="0.615" stop-color="#737373" stop-opacity="0.12"/>
<stop offset="0.96" stop-color="#535353" stop-opacity="0"/>
</linearGradient>
<linearGradient id="paint1_linear_424_3" x1="575.133" y1="258.6" x2="466.815" y2="291.429" gradientUnits="userSpaceOnUse">
<stop stop-color="#535353" stop-opacity="0"/>
<stop offset="1" stop-color="#737373" stop-opacity="0.12"/>
</linearGradient>
<linearGradient id="paint2_linear_424_3" x1="545" y1="608" x2="558" y2="670" gradientUnits="userSpaceOnUse">
<stop stop-color="#535353" stop-opacity="0"/>
<stop offset="1" stop-color="#737373" stop-opacity="0.12"/>
</linearGradient>
<linearGradient id="paint3_linear_424_3" x1="651" y1="518" x2="573.19" y2="537.08" gradientUnits="userSpaceOnUse">
<stop stop-color="#535353" stop-opacity="0"/>
<stop offset="1" stop-color="#737373" stop-opacity="0.12"/>
</linearGradient>
</defs>
</svg>
