<svg width="1000" height="1000" viewBox="0 0 1000 1000" fill="none" xmlns="http://www.w3.org/2000/svg">
<g clip-path="url(#clip0_377_8177)">
<mask id="path-1-inside-1_377_8177" fill="white">
<path fill-rule="evenodd" clip-rule="evenodd" d="M115.281 223.781H157.044L166.255 170.353L220.297 165.439V161.756H251.002V177.107H260.829V164.825H285.393V160.527H289.691V158.071H301.36V160.527H335.75V179.564H339.435V170.967H436.465V212.111H438.922V208.426H532.881L535.951 199.215V155H604.732V159.914H610.258L611.488 158.07H656.317V164.825H658.774V158.071H716.501V155H763.787V188.163H753.962V195.531H832.568L857.747 201.673V230.537H864.502V228.08H901.963V315.284H915.473V349.674H921V376.081H915.473V416.613H909.947V425.21H906.876V536.978H909.947V582.423H906.876V626.639H831.954V676.997H845.465V708.316H838.709V712.615H845.465V753.146H838.709V766.042H844.237V799.819L838.709 799.205V802.276H777.912V797.977H776.07V805.347H718.342V797.977H706.675V802.276H683.952V797.977H678.425V802.276H631.137V761.744H613.328V805.347H556.216L550.689 794.906L542.092 799.205L539.021 805.347L474.539 837.894H467.783L456.73 843.421L461.642 853.248L335.749 812.101V809.646H322.239L285.391 734.723H229.507L228.279 675.154H291.533V478.024H307.499L304.43 473.111H244.246V464.514H219.682V473.111H162.569V388.363L164.411 385.906H152.744V347.217L161.955 341.076V337.391L160.112 336.164V320.81L161.955 319.582V315.284H110.37L109.141 313.442L106.685 233.606H103V231.151L113.441 221.324H115.282L115.281 223.781ZM260.213 196.76V204.129H335.749V197.988H339.434V206.586H398.388V213.341H395.318V256.943L404.53 266.155H437.077V229.921H438.306V234.834H487.435V236.063H438.306V266.155H458.571L460.414 267.997H606.574V216.411L604.117 214.569L603.503 193.075H605.345L604.731 186.319H609.029L610.257 188.163H656.93L656.316 180.793H658.773L659.387 185.707H701.146V188.163H737.993V195.531H676.582L658.773 199.216V220.71L671.054 221.939L676.582 274.139H660.001V289.491H676.582V301.773H658.773V338.005L661.229 339.848V377.924L624.997 395.733H622.54L620.698 393.89H600.432L599.204 395.733H593.062V394.504H542.706V395.733H505.858L488.663 360.113V342.918H491.12V333.707H489.892L489.277 271.682H392.861V259.399H391.634L390.406 223.781H333.906V205.358H251.615V196.76H260.213ZM190.204 240.976H209.856V245.889H195.117V260.627H190.204V240.976ZM267.582 240.976V260.627H262.67V245.889H247.931V240.976H267.582ZM333.906 263.084H343.733V276.594H333.906V263.084ZM190.204 323.267H209.856V318.354H195.117V303.615H190.204V323.267ZM267.582 303.615H262.67V318.354H247.931V323.267H267.582V303.615ZM289.076 385.906H261.442V388.363H267.582V404.33L279.865 427.666H297.06V426.438H310.57V427.666H328.993V475.567L325.309 476.795V478.024H348.646V495.219H367.069V512.414H381.808V496.447H394.089V485.392H390.406V486.622H386.721V485.392H381.808V417.841H395.318V416.613L391.634 415.998V340.462H447.518V333.093H448.132V324.495H447.518V319.582H375.052L349.873 315.897H333.292V385.906H316.711V387.135H289.076V385.906ZM416.197 492.762V474.339H414.969V567.685H404.53L401.459 572.598H408.829V584.88H440.148V596.547H454.887V584.88H487.435V580.581H468.398V554.788H476.381V543.734H468.398V497.061H486.207V492.762H416.197ZM336.977 585.494L341.276 567.685H368.297V534.522H369.526V567.685H379.351L383.036 572.598H375.666V636.464H395.932V624.183H407.6V636.464H454.273L473.311 645.677V663.486H467.169V746.391H473.311V762.973L457.344 771.57H437.077V767.271H357.243V762.973L361.542 761.744V748.233L349.873 742.093V699.105H345.575V657.345H361.542V632.166H336.977V585.494ZM215.997 421.526H185.906V389.591L183.449 387.749V385.906H246.702V388.363H236.42V404.944H215.997V421.526ZM418.04 401.873L416.197 403.716V437.492H414.969V417.841H408.829V416.613H412.514V379.766H443.219V360.113H448.132V396.961L451.817 400.032V403.101H445.061L443.833 401.873H418.04ZM706.06 753.146V765.428H718.341V753.146H706.06ZM755.189 753.146H742.906V765.428H755.189V753.146ZM792.035 753.146H779.754V765.428H792.035V753.146ZM596.747 606.988V627.253H582.623V624.183H556.83V627.253H540.863L537.793 629.71V584.265H514.456V579.966H532.265V523.468H520.598V497.061H514.456V492.148H552.531V519.783H734.922V360.115H735.536V355.201H734.922V349.06H720.798V346.603H715.885L713.429 342.304V271.682H712.201V268.611L732.467 250.802L733.081 252.029H736.765V250.802H763.786L765.014 253.258H792.65L797.563 250.802H815.372L832.567 268.611V285.192H844.236V304.844H839.322V346.603H836.866V387.749H844.236V524.082L836.866 530.224H765.014V549.261H741.064V606.988H736.152V633.395H725.711V608.83H682.723L680.881 610.672H671.054V606.988H596.747ZM682.109 753.146H685.18V765.428H682.109V776.483H653.859V743.934H664.3V704.631H644.034V674.54H669.827V649.361H682.109V674.54H725.097L726.325 672.698H735.536L737.993 674.54H795.106V583.037H880.468V601.46H806.16V714.458L778.524 714.457V710.158H752.732V714.457H742.906V710.158H717.113V714.457H682.109V753.146Z"/>
</mask>
<g filter="url(#filter0_i_377_8177)">
<path fill-rule="evenodd" clip-rule="evenodd" d="M115.281 223.781H157.044L166.255 170.353L220.297 165.439V161.756H251.002V177.107H260.829V164.825H285.393V160.527H289.691V158.071H301.36V160.527H335.75V179.564H339.435V170.967H436.465V212.111H438.922V208.426H532.881L535.951 199.215V155H604.732V159.914H610.258L611.488 158.07H656.317V164.825H658.774V158.071H716.501V155H763.787V188.163H753.962V195.531H832.568L857.747 201.673V230.537H864.502V228.08H901.963V315.284H915.473V349.674H921V376.081H915.473V416.613H909.947V425.21H906.876V536.978H909.947V582.423H906.876V626.639H831.954V676.997H845.465V708.316H838.709V712.615H845.465V753.146H838.709V766.042H844.237V799.819L838.709 799.205V802.276H777.912V797.977H776.07V805.347H718.342V797.977H706.675V802.276H683.952V797.977H678.425V802.276H631.137V761.744H613.328V805.347H556.216L550.689 794.906L542.092 799.205L539.021 805.347L474.539 837.894H467.783L456.73 843.421L461.642 853.248L335.749 812.101V809.646H322.239L285.391 734.723H229.507L228.279 675.154H291.533V478.024H307.499L304.43 473.111H244.246V464.514H219.682V473.111H162.569V388.363L164.411 385.906H152.744V347.217L161.955 341.076V337.391L160.112 336.164V320.81L161.955 319.582V315.284H110.37L109.141 313.442L106.685 233.606H103V231.151L113.441 221.324H115.282L115.281 223.781ZM260.213 196.76V204.129H335.749V197.988H339.434V206.586H398.388V213.341H395.318V256.943L404.53 266.155H437.077V229.921H438.306V234.834H487.435V236.063H438.306V266.155H458.571L460.414 267.997H606.574V216.411L604.117 214.569L603.503 193.075H605.345L604.731 186.319H609.029L610.257 188.163H656.93L656.316 180.793H658.773L659.387 185.707H701.146V188.163H737.993V195.531H676.582L658.773 199.216V220.71L671.054 221.939L676.582 274.139H660.001V289.491H676.582V301.773H658.773V338.005L661.229 339.848V377.924L624.997 395.733H622.54L620.698 393.89H600.432L599.204 395.733H593.062V394.504H542.706V395.733H505.858L488.663 360.113V342.918H491.12V333.707H489.892L489.277 271.682H392.861V259.399H391.634L390.406 223.781H333.906V205.358H251.615V196.76H260.213ZM190.204 240.976H209.856V245.889H195.117V260.627H190.204V240.976ZM267.582 240.976V260.627H262.67V245.889H247.931V240.976H267.582ZM333.906 263.084H343.733V276.594H333.906V263.084ZM190.204 323.267H209.856V318.354H195.117V303.615H190.204V323.267ZM267.582 303.615H262.67V318.354H247.931V323.267H267.582V303.615ZM289.076 385.906H261.442V388.363H267.582V404.33L279.865 427.666H297.06V426.438H310.57V427.666H328.993V475.567L325.309 476.795V478.024H348.646V495.219H367.069V512.414H381.808V496.447H394.089V485.392H390.406V486.622H386.721V485.392H381.808V417.841H395.318V416.613L391.634 415.998V340.462H447.518V333.093H448.132V324.495H447.518V319.582H375.052L349.873 315.897H333.292V385.906H316.711V387.135H289.076V385.906ZM416.197 492.762V474.339H414.969V567.685H404.53L401.459 572.598H408.829V584.88H440.148V596.547H454.887V584.88H487.435V580.581H468.398V554.788H476.381V543.734H468.398V497.061H486.207V492.762H416.197ZM336.977 585.494L341.276 567.685H368.297V534.522H369.526V567.685H379.351L383.036 572.598H375.666V636.464H395.932V624.183H407.6V636.464H454.273L473.311 645.677V663.486H467.169V746.391H473.311V762.973L457.344 771.57H437.077V767.271H357.243V762.973L361.542 761.744V748.233L349.873 742.093V699.105H345.575V657.345H361.542V632.166H336.977V585.494ZM215.997 421.526H185.906V389.591L183.449 387.749V385.906H246.702V388.363H236.42V404.944H215.997V421.526ZM418.04 401.873L416.197 403.716V437.492H414.969V417.841H408.829V416.613H412.514V379.766H443.219V360.113H448.132V396.961L451.817 400.032V403.101H445.061L443.833 401.873H418.04ZM706.06 753.146V765.428H718.341V753.146H706.06ZM755.189 753.146H742.906V765.428H755.189V753.146ZM792.035 753.146H779.754V765.428H792.035V753.146ZM596.747 606.988V627.253H582.623V624.183H556.83V627.253H540.863L537.793 629.71V584.265H514.456V579.966H532.265V523.468H520.598V497.061H514.456V492.148H552.531V519.783H734.922V360.115H735.536V355.201H734.922V349.06H720.798V346.603H715.885L713.429 342.304V271.682H712.201V268.611L732.467 250.802L733.081 252.029H736.765V250.802H763.786L765.014 253.258H792.65L797.563 250.802H815.372L832.567 268.611V285.192H844.236V304.844H839.322V346.603H836.866V387.749H844.236V524.082L836.866 530.224H765.014V549.261H741.064V606.988H736.152V633.395H725.711V608.83H682.723L680.881 610.672H671.054V606.988H596.747ZM682.109 753.146H685.18V765.428H682.109V776.483H653.859V743.934H664.3V704.631H644.034V674.54H669.827V649.361H682.109V674.54H725.097L726.325 672.698H735.536L737.993 674.54H795.106V583.037H880.468V601.46H806.16V714.458L778.524 714.457V710.158H752.732V714.457H742.906V710.158H717.113V714.457H682.109V753.146Z" fill="#313131"/>
</g>
<path fill-rule="evenodd" clip-rule="evenodd" d="M115.281 223.781H157.044L166.255 170.353L220.297 165.439V161.756H251.002V177.107H260.829V164.825H285.393V160.527H289.691V158.071H301.36V160.527H335.75V179.564H339.435V170.967H436.465V212.111H438.922V208.426H532.881L535.951 199.215V155H604.732V159.914H610.258L611.488 158.07H656.317V164.825H658.774V158.071H716.501V155H763.787V188.163H753.962V195.531H832.568L857.747 201.673V230.537H864.502V228.08H901.963V315.284H915.473V349.674H921V376.081H915.473V416.613H909.947V425.21H906.876V536.978H909.947V582.423H906.876V626.639H831.954V676.997H845.465V708.316H838.709V712.615H845.465V753.146H838.709V766.042H844.237V799.819L838.709 799.205V802.276H777.912V797.977H776.07V805.347H718.342V797.977H706.675V802.276H683.952V797.977H678.425V802.276H631.137V761.744H613.328V805.347H556.216L550.689 794.906L542.092 799.205L539.021 805.347L474.539 837.894H467.783L456.73 843.421L461.642 853.248L335.749 812.101V809.646H322.239L285.391 734.723H229.507L228.279 675.154H291.533V478.024H307.499L304.43 473.111H244.246V464.514H219.682V473.111H162.569V388.363L164.411 385.906H152.744V347.217L161.955 341.076V337.391L160.112 336.164V320.81L161.955 319.582V315.284H110.37L109.141 313.442L106.685 233.606H103V231.151L113.441 221.324H115.282L115.281 223.781ZM260.213 196.76V204.129H335.749V197.988H339.434V206.586H398.388V213.341H395.318V256.943L404.53 266.155H437.077V229.921H438.306V234.834H487.435V236.063H438.306V266.155H458.571L460.414 267.997H606.574V216.411L604.117 214.569L603.503 193.075H605.345L604.731 186.319H609.029L610.257 188.163H656.93L656.316 180.793H658.773L659.387 185.707H701.146V188.163H737.993V195.531H676.582L658.773 199.216V220.71L671.054 221.939L676.582 274.139H660.001V289.491H676.582V301.773H658.773V338.005L661.229 339.848V377.924L624.997 395.733H622.54L620.698 393.89H600.432L599.204 395.733H593.062V394.504H542.706V395.733H505.858L488.663 360.113V342.918H491.12V333.707H489.892L489.277 271.682H392.861V259.399H391.634L390.406 223.781H333.906V205.358H251.615V196.76H260.213ZM190.204 240.976H209.856V245.889H195.117V260.627H190.204V240.976ZM267.582 240.976V260.627H262.67V245.889H247.931V240.976H267.582ZM333.906 263.084H343.733V276.594H333.906V263.084ZM190.204 323.267H209.856V318.354H195.117V303.615H190.204V323.267ZM267.582 303.615H262.67V318.354H247.931V323.267H267.582V303.615ZM289.076 385.906H261.442V388.363H267.582V404.33L279.865 427.666H297.06V426.438H310.57V427.666H328.993V475.567L325.309 476.795V478.024H348.646V495.219H367.069V512.414H381.808V496.447H394.089V485.392H390.406V486.622H386.721V485.392H381.808V417.841H395.318V416.613L391.634 415.998V340.462H447.518V333.093H448.132V324.495H447.518V319.582H375.052L349.873 315.897H333.292V385.906H316.711V387.135H289.076V385.906ZM416.197 492.762V474.339H414.969V567.685H404.53L401.459 572.598H408.829V584.88H440.148V596.547H454.887V584.88H487.435V580.581H468.398V554.788H476.381V543.734H468.398V497.061H486.207V492.762H416.197ZM336.977 585.494L341.276 567.685H368.297V534.522H369.526V567.685H379.351L383.036 572.598H375.666V636.464H395.932V624.183H407.6V636.464H454.273L473.311 645.677V663.486H467.169V746.391H473.311V762.973L457.344 771.57H437.077V767.271H357.243V762.973L361.542 761.744V748.233L349.873 742.093V699.105H345.575V657.345H361.542V632.166H336.977V585.494ZM215.997 421.526H185.906V389.591L183.449 387.749V385.906H246.702V388.363H236.42V404.944H215.997V421.526ZM418.04 401.873L416.197 403.716V437.492H414.969V417.841H408.829V416.613H412.514V379.766H443.219V360.113H448.132V396.961L451.817 400.032V403.101H445.061L443.833 401.873H418.04ZM706.06 753.146V765.428H718.341V753.146H706.06ZM755.189 753.146H742.906V765.428H755.189V753.146ZM792.035 753.146H779.754V765.428H792.035V753.146ZM596.747 606.988V627.253H582.623V624.183H556.83V627.253H540.863L537.793 629.71V584.265H514.456V579.966H532.265V523.468H520.598V497.061H514.456V492.148H552.531V519.783H734.922V360.115H735.536V355.201H734.922V349.06H720.798V346.603H715.885L713.429 342.304V271.682H712.201V268.611L732.467 250.802L733.081 252.029H736.765V250.802H763.786L765.014 253.258H792.65L797.563 250.802H815.372L832.567 268.611V285.192H844.236V304.844H839.322V346.603H836.866V387.749H844.236V524.082L836.866 530.224H765.014V549.261H741.064V606.988H736.152V633.395H725.711V608.83H682.723L680.881 610.672H671.054V606.988H596.747ZM682.109 753.146H685.18V765.428H682.109V776.483H653.859V743.934H664.3V704.631H644.034V674.54H669.827V649.361H682.109V674.54H725.097L726.325 672.698H735.536L737.993 674.54H795.106V583.037H880.468V601.46H806.16V714.458L778.524 714.457V710.158H752.732V714.457H742.906V710.158H717.113V714.457H682.109V753.146Z" stroke="#464646" stroke-width="2" mask="url(#path-1-inside-1_377_8177)"/>
<mask id="mask0_377_8177" style="mask-type:alpha" maskUnits="userSpaceOnUse" x="294" y="183" width="284" height="284">
<path d="M420.049 463.245L574.505 308.908L577.641 312.041L423.185 466.379L420.049 463.245ZM413.779 456.977L568.234 302.64L571.371 305.773L416.915 460.111L413.779 456.977ZM407.505 450.709L561.96 296.373L565.097 299.505L410.641 453.843L407.505 450.709ZM401.232 444.443L555.688 290.106L558.824 293.239L404.368 447.577L401.232 444.443ZM394.96 438.173L549.416 283.837L552.553 286.969L398.097 441.307L394.96 438.173ZM388.688 431.907L543.144 277.57L546.28 280.703L391.824 435.041L388.688 431.907ZM382.416 425.639L536.872 271.302L540.008 274.435L385.553 428.773L382.416 425.639ZM376.143 419.372L530.599 265.035L533.736 268.168L379.28 422.506L376.143 419.372ZM369.872 413.104L524.328 258.767L527.464 261.9L373.008 416.238L369.872 413.104ZM363.599 406.837L518.055 252.5L521.191 255.633L366.737 409.971L363.599 406.837ZM357.328 400.568L511.784 246.231L514.92 249.364L360.464 403.702L357.328 400.568ZM351.054 394.303L505.51 239.966L508.646 243.099L354.19 397.437L351.054 394.303ZM344.781 388.033L499.237 233.697L502.373 236.829L347.918 391.167L344.781 388.033ZM338.51 381.767L492.965 227.43L496.102 230.563L341.646 384.901L338.51 381.767ZM332.237 375.499L486.693 221.162L489.829 224.295L335.373 378.633L332.237 375.499ZM325.965 369.231L480.421 214.894L483.558 218.027L329.103 372.365L325.965 369.231ZM319.693 362.964L474.149 208.627L477.285 211.76L322.829 366.098L319.693 362.964ZM313.421 356.697L467.877 202.36L471.013 205.493L316.558 359.831L313.421 356.697ZM307.149 350.429L461.604 196.093L464.741 199.225L310.285 353.563L307.149 350.429ZM300.877 344.161L455.333 189.825L458.469 192.957L304.013 347.295L300.877 344.161ZM294.604 337.893L449.06 183.557L452.196 186.689L297.741 341.027L294.604 337.893Z" fill="#434343"/>
</mask>
<g mask="url(#mask0_377_8177)">
<path d="M424.547 235.907H438.825V265.653H448.344V403.076H444.774L443.584 401.887H424.547V235.907Z" fill="#313131"/>
</g>
<g filter="url(#filter1_di_377_8177)">
<mask id="mask1_377_8177" style="mask-type:alpha" maskUnits="userSpaceOnUse" x="103" y="155" width="818" height="699">
<path opacity="0.8" fill-rule="evenodd" clip-rule="evenodd" d="M115.281 223.781H157.044L166.255 170.353L220.297 165.439V161.756H251.002V177.107H260.829V164.825H285.393V160.527H289.691V158.071H301.36V160.527H335.75V179.564H339.435V170.967H436.465V212.111H438.922V208.426H532.881L535.951 199.215V155H604.732V159.914H610.258L611.488 158.07H656.317V164.825H658.774V158.071H716.501V155H763.787V188.163H753.962V195.531H832.568L857.747 201.673V230.537H864.502V228.08H901.963V315.284H915.473V349.674H921V376.081H915.473V416.613H909.947V425.21H906.876V469.426H909.947V492.762H906.876V536.978H909.947V582.423H906.876V626.639H831.954V676.997H845.465V708.316H838.709V712.615H845.465V753.146H838.709V766.042H844.237V799.819L838.709 799.205V802.276H777.912V797.977H776.07V805.347H718.342V797.977H706.675V802.276H683.952V797.977H678.425V802.276H631.137V761.744H613.328V805.347H556.216L550.689 794.906L542.092 799.205L539.021 805.347L474.539 837.894H467.783L456.73 843.421L461.642 853.247L335.749 812.101V809.646H322.239L285.391 734.723H229.507L228.279 675.154H291.533V478.024H307.499L304.43 473.111H244.246V464.514H219.682V473.111H162.569V388.363L164.411 385.906H152.744V347.217L161.955 341.076V337.391L160.112 336.164V320.81L161.955 319.582V315.284H110.37L109.141 313.442L106.685 233.606H103V231.151L113.441 221.324H115.282L115.281 223.781ZM260.213 196.76V204.129H335.749V197.988H339.434V206.586H398.388V213.341H395.318V256.943L404.53 266.155H437.077V229.921H438.306V234.834H487.435V236.063H438.306V266.155H458.571L460.414 267.997H606.574V216.411L604.117 214.569L603.503 193.075H605.345L604.731 186.319H609.029L610.257 188.163H656.93L656.316 180.793H658.773L659.387 185.707H701.146V188.163H737.993V195.531H676.582L658.773 199.216V220.71L671.054 221.939L676.582 274.139H660.001V289.491H676.582V301.773H658.773V338.005L661.229 339.848V377.924L624.997 395.733H622.54L620.698 393.89H600.432L599.204 395.733H593.062V394.504H542.706V395.733H505.858L488.663 360.113V342.918H491.12V333.707H489.892L489.277 271.682H392.861V259.399H391.634L390.406 223.781H333.906V205.358H251.615V196.76H260.213ZM190.204 240.976H209.856V245.889H195.117V260.627H190.204V240.976ZM267.582 240.976V260.627H262.67V245.889H247.931V240.976H267.582ZM333.906 263.084H343.733V276.594H333.906V263.084ZM190.204 323.267H209.856V318.354H195.117V303.615H190.204V323.267ZM267.582 303.615H262.67V318.354H247.931V323.267H267.582V303.615ZM289.076 385.906H261.442V388.363H267.582V404.33L279.865 427.666H297.06V426.438H310.57V427.666H328.993V475.567L325.309 476.795V478.024H348.646V495.219H367.069V512.414H381.808V496.447H394.089V485.392H390.406V486.622H386.721V485.392H381.808V417.841H395.318V416.613L391.634 415.998V340.462H447.518V333.093H448.132V324.495H447.518V319.582H375.052L349.873 315.897H333.292V385.906H316.711V387.135H289.076V385.906ZM416.197 492.762V474.339H414.969V567.685H404.53L401.459 572.598H408.829V584.88H440.148V596.547H454.887V584.88H487.435V580.581H468.398V554.788H476.381V543.734H468.398V497.061H486.207V492.762H416.197ZM336.977 585.494L341.276 567.685H368.297V534.522H369.526V567.685H379.351L383.036 572.598H375.666V636.464H395.932V624.183H407.6V636.464H454.273L473.311 645.677V663.486H467.169V746.391H473.311V762.973L457.344 771.57H437.077V767.271H357.243V762.973L361.542 761.744V748.233L349.873 742.093V699.105H345.575V657.345H361.542V632.166H336.977V585.494ZM215.997 421.526H185.906V389.591L183.449 387.749V385.906H246.702V388.363H236.42V404.944H215.997V421.526ZM418.04 401.873L416.197 403.716V437.492H414.969V417.841H408.829V416.613H412.514V379.766H443.219V360.113H448.132V396.961L451.817 400.032V403.101H445.061L443.833 401.873H418.04ZM706.06 753.146V765.428H718.341V753.146H706.06ZM755.189 753.146H742.906V765.428H755.189V753.146ZM792.035 753.146H779.753V765.428H792.035V753.146ZM596.747 606.988V627.253H582.623V624.183H556.83V627.253H540.863L537.793 629.71V584.265H514.456V579.966H532.265V523.468H520.598V497.061H514.456V492.148H552.531V519.783H734.922V360.115H735.536V355.201H734.922V349.06H720.798V346.603H715.885L713.429 342.304V271.682H712.201V268.611L732.467 250.802L733.081 252.029H736.766V250.802H763.786L765.014 253.258H792.65L797.563 250.802H815.372L832.567 268.611V285.192H844.236V304.844H839.322V346.603H836.866V387.749H844.236V524.082L836.866 530.224H765.014V549.261H741.064V606.988H736.152V633.395H725.711V608.83H682.723L680.881 610.672H671.054V606.988H596.747ZM682.109 753.146H685.18V765.428H682.109V776.483H653.859V743.934H664.3V704.631H644.034V674.54H669.827V649.361H682.109V674.54H725.097L726.325 672.698H735.536L737.993 674.54H795.106V583.037H880.468V601.46H806.16V714.458L778.524 714.457V710.158H752.732V714.457H742.906V710.158H717.113V714.457H682.109V753.146Z" fill="#1C1C1C"/>
</mask>
<g mask="url(#mask1_377_8177)">
<path d="M806.272 568.799V571.868H809.729V568.799H830.837V571.868H833.68V568.799H853.852L856.629 571.574V582.537H794.605V674.04H780.251V571.575L783.03 568.799H806.272Z" fill="#464646" stroke="#464646"/>
<path d="M219.098 462.472V472.514H190.654V462.472H219.098ZM167.828 445.814V472.418H163.307V445.814H167.828ZM283.65 468.421V472.181H266.802V468.421H283.65ZM263.422 468.421V472.181H246.576V468.421H263.422ZM279.921 428.202L277.537 429.435L264.596 404.387L266.981 403.154L279.921 428.202ZM234.867 405.361V409.12H218.02V405.361H234.867ZM152.858 263.584V283.464H145.26V263.584H152.858ZM720.599 216.846L710.871 219.383L708.334 209.654L718.062 207.117L720.599 216.846ZM170.533 202.976L168.396 213.99H158.617L160.749 200.814L170.533 202.976ZM856.809 571.464L856.642 571.314L853.44 568.452L854.673 563.606H878.557V582.833H856.809V571.464Z" fill="#464646" stroke="#464646"/>
<path d="M676.193 301.942V314.435L658.941 323.359" stroke="#464646"/>
<path d="M260.94 289.376V296.974H244.744V289.376H260.94ZM263.397 246.389V265.041H244.744V246.389H263.397ZM214.268 246.389V265.041H195.615V246.389H214.268ZM723.234 206.01L713.18 206.051L713.138 195.998L723.192 195.956L723.234 206.01ZM762.056 161.642V182.75H754.458V161.642H762.056ZM705.558 159.185V168.01H696.732V159.185H705.558ZM726.689 162.855L719.552 165.455L717.371 159.47L724.508 156.87L726.689 162.855Z" fill="#464646" stroke="#464646"/>
<path d="M394.303 418.448V432.916H382.215V418.448H394.303ZM462.368 321.31V335.048H448.63V321.31H462.368ZM331.954 330.097L327.44 330.459L326.27 315.857L330.783 315.494L331.954 330.097ZM241.221 317.643L235.334 317.993L234.516 304.28L240.401 303.929L241.221 317.643ZM262.169 296.746V317.855H242.289V296.746H262.169Z" fill="#464646" stroke="#464646"/>
<path d="M431.686 379.875V369.167H412.649V340.611M424.547 401.887V459.593L445.369 468.516M444.774 401.887V439.961L465.596 448.884M487.608 235.313H572.679M252.024 204.377H219.899V165.114M339.476 198.428H356.728V206.757M193.723 207.947L171.712 222.82H155.649" stroke="#464646"/>
<path d="M474.65 710.658V739.136H468.28V710.658H474.65ZM474.65 667.67V696.148H468.28V667.67H474.65ZM480.792 555.903V567.185H469.51V555.903H480.792ZM657.658 508.875V520.157H642.69V508.875H657.658ZM475.153 485.078V493.28H454.99V485.078H475.153ZM421.668 464.852V479.32H416.719V464.852H421.668Z" fill="#464646" stroke="#464646"/>
<path d="M472.079 699.604C474.177 699.605 475.878 701.305 475.878 703.403C475.878 705.501 474.177 707.202 472.079 707.202C469.981 707.202 468.281 705.501 468.281 703.403C468.281 701.305 469.981 699.604 472.079 699.604Z" fill="#464646" stroke="#464646"/>
<path d="M518.519 747.838L501.171 757.502L491.508 740.154L508.856 730.49L518.519 747.838Z" fill="#464646" stroke="#464646"/>
<path d="M531.149 730.31V740.365H513.726V730.31H531.149Z" fill="#464646" stroke="#464646"/>
<path d="M579.695 750.586L561.975 756.413L557.298 742.195L575.017 736.366L579.695 750.586ZM530.755 732.414L517.645 737.713L513.876 728.392L526.987 723.092L530.755 732.414Z" fill="#464646" stroke="#464646"/>
<path d="M591.061 785.509L573.838 790.663L569.119 774.89L586.34 769.735L591.061 785.509ZM591.513 744.235L585.39 748.733L573.86 733.041L579.982 728.543L591.513 744.235Z" fill="#464646" stroke="#464646"/>
<path d="M464.901 823.097L447.166 828.872L441.391 811.136L459.126 805.361L464.901 823.097ZM577.656 797.124L562.191 804.408L555.476 790.153L570.941 782.869L577.656 797.124ZM457.363 771.824V781.532H436.946V771.824H457.363ZM653.058 746.503L651.99 760.112L637.213 758.951L638.283 745.342L653.058 746.503Z" fill="#464646" stroke="#464646"/>
<path d="M471.85 836.07L457.048 838.278L454.839 823.475L469.642 821.266L471.85 836.07Z" fill="#464646" stroke="#464646"/>
<path d="M730.008 383.95C731.427 383.95 732.578 385.102 732.578 386.521C732.578 387.941 731.427 389.092 730.008 389.092C728.588 389.092 727.437 387.941 727.436 386.521C727.436 385.102 728.588 383.95 730.008 383.95Z" fill="#464646" stroke="#464646"/>
<path d="M725.095 387.634C726.515 387.634 727.665 388.786 727.665 390.205C727.665 391.625 726.515 392.775 725.095 392.776C723.675 392.776 722.524 391.625 722.524 390.205C722.524 388.785 723.675 387.634 725.095 387.634Z" fill="#464646" stroke="#464646"/>
<path d="M677.162 452.704C678.918 452.704 680.342 454.127 680.342 455.884C680.342 457.64 678.918 459.064 677.162 459.064C675.405 459.064 673.982 457.64 673.982 455.884C673.982 454.128 675.406 452.704 677.162 452.704Z" fill="#464646" stroke="#464646"/>
<path d="M731.237 388.863C732.657 388.863 733.807 390.015 733.807 391.435C733.807 392.854 732.657 394.005 731.237 394.005C729.817 394.005 728.666 392.854 728.666 391.435C728.666 390.015 729.817 388.863 731.237 388.863Z" fill="#464646" stroke="#464646"/>
<path d="M701.613 445.843L691.511 455.154L682.2 445.053L692.302 435.743L701.613 445.843ZM733.807 398.689V403.83H727.436V398.689H733.807ZM731.35 391.319V397.689H726.21V391.319H731.35Z" fill="#464646" stroke="#464646"/>
<path d="M699.801 465.358L691.065 473.41L678.513 459.792L687.249 451.74L699.801 465.358Z" fill="#464646" stroke="#464646"/>
<path d="M688.837 470.766L680.454 478.491L672.728 470.109L681.11 462.382L688.837 470.766Z" fill="#464646" stroke="#464646"/>
<path d="M643.589 675.04V691.235H624.937V678.862H639.061V675.04H643.589ZM748.867 573.125V579.264H741.538V573.125H748.867ZM748.867 565.986V572.125H741.538V565.986H748.867ZM366.759 555.25L363.839 566.148L352.943 563.227L355.861 552.33L366.759 555.25ZM764.334 549.329V564.986H741.538V549.329H764.334ZM414.467 526.424V547.533H404.382V526.424H414.467ZM392.823 501.059L387.397 509.522L386.17 508.736L391.597 500.273L392.823 501.059ZM366.937 495.787V509.065H352.469V495.787H366.937ZM701.871 472.382V486.121H688.133V472.382H701.871ZM392.823 475.601L387.397 484.063L386.17 483.277L391.597 474.814L392.823 475.601ZM674.822 457.303V468.265H673.982V457.303H674.822ZM619.177 435.106V435.296H450.033V435.106H619.177ZM241.577 388.704V402.425H237.057V388.704H241.577Z" fill="#464646" stroke="#464646"/>
<path d="M449.033 402.981V435.296H448.844V402.981H449.033ZM460.088 426.938V434.536H450.033V426.938H460.088Z" fill="#464646" stroke="#464646"/>
<path d="M464.029 430.157L463.006 431.194L451.83 420.161L452.853 419.124L464.029 430.157Z" fill="#464646" stroke="#464646"/>
<path d="M688.864 662.757C691.301 662.758 693.276 664.733 693.276 667.17C693.276 669.607 691.301 671.582 688.864 671.583C686.427 671.583 684.451 669.607 684.451 667.17C684.451 664.733 686.427 662.757 688.864 662.757Z" fill="#464646" stroke="#464646"/>
<path d="M796.78 745.306C798.536 745.306 799.96 746.73 799.961 748.486C799.961 750.242 798.536 751.667 796.78 751.667C795.024 751.667 793.6 750.242 793.6 748.486C793.6 746.73 795.024 745.307 796.78 745.306Z" fill="#464646" stroke="#464646"/>
<path d="M610.849 627.856V643.513H583.293V627.856H610.849ZM610.849 607.63V626.856H597.57V607.63H610.849ZM621.557 607.63V619.718H611.849V607.63H621.557Z" fill="#464646" stroke="#464646"/>
<path d="M557.086 649.975V627.253H540.862L537.791 629.71V595.319H524.28V649.975L529.193 654.889H552.173L557.086 649.975Z" fill="url(#paint0_linear_377_8177)"/>
<path d="M169.937 173.923C172.035 173.923 173.736 175.624 173.736 177.722C173.736 179.82 172.035 181.52 169.937 181.521C167.839 181.521 166.138 179.82 166.138 177.722C166.138 175.624 167.839 173.923 169.937 173.923Z" fill="#464646" stroke="#464646"/>
<path d="M183.991 205.794L182.652 212.198L170.097 209.573L171.436 203.169L183.991 205.794Z" fill="#464646" stroke="#464646"/>
<path d="M197.823 189.681L194.005 207.938L161.322 201.106L165.138 182.848L197.823 189.681Z" fill="#464646" stroke="#464646"/>
<path d="M191.432 183.749C193.19 183.749 194.617 185.174 194.617 186.933C194.617 188.692 193.191 190.119 191.432 190.119C189.673 190.118 188.247 188.692 188.247 186.933C188.247 185.174 189.673 183.749 191.432 183.749Z" fill="#464646" stroke="#464646"/>
<path d="M334.983 165.924L330.902 170.817L326.011 166.738L330.091 161.845L334.983 165.924ZM323.578 161.642V165.555H319.665V161.642H323.578ZM249.886 162.869V165.555H239.831V162.869H249.886Z" fill="#464646" stroke="#464646"/>
<path d="M328.697 427.968V442.935H324.555L325.864 443.845C326.529 444.308 327.073 444.925 327.448 445.643C327.823 446.362 328.02 447.16 328.019 447.97L328.008 448.306C327.955 449.088 327.721 449.849 327.321 450.527C326.864 451.301 326.208 451.939 325.422 452.374C324.635 452.809 323.745 453.024 322.846 452.999C321.948 452.973 321.072 452.707 320.311 452.228C319.55 451.749 318.931 451.075 318.519 450.276C318.107 449.477 317.917 448.581 317.969 447.683C318.02 446.786 318.312 445.918 318.812 445.172C319.313 444.425 320.005 443.826 320.815 443.437L321.099 443.302V427.968H328.697Z" fill="#464646" stroke="#464646"/>
<path d="M291.645 427.968V446.619H284.048V427.968H291.645ZM158.719 348.25V355.578H152.58V348.25H158.719ZM397.987 213.801V228.769H395.303V213.801H397.987Z" fill="#464646" stroke="#464646"/>
<path d="M436.578 241.476V266.269H408.1V258.671H430.209V241.476H436.578Z" fill="#464646" stroke="#464646"/>
<path d="M435.946 170.968V204.472H427.427V170.968H435.946Z" fill="#464646" stroke="#464646"/>
<path d="M431.152 173.044L427.385 180.806L418.81 176.644L422.575 168.884L431.152 173.044Z" fill="#464646" stroke="#464646"/>
<path d="M723.191 216.87V195.454H801.719V221.035H727.355L723.191 216.87Z" fill="url(#paint1_linear_377_8177)"/>
<path d="M910.559 316.397C912.657 316.397 914.357 318.098 914.357 320.196C914.357 322.294 912.657 323.995 910.559 323.995C908.461 323.995 906.76 322.294 906.76 320.196C906.76 318.098 908.461 316.397 910.559 316.397Z" fill="#464646" stroke="#464646"/>
<path d="M840.025 381.853C841.273 381.853 842.285 382.865 842.285 384.113C842.285 385.361 841.273 386.373 840.025 386.373C838.777 386.373 837.765 385.361 837.764 384.113C837.764 382.865 838.777 381.853 840.025 381.853Z" fill="#464646" stroke="#464646"/>
<path d="M842.326 378.173C843.32 378.173 844.126 378.978 844.126 379.972C844.126 380.966 843.32 381.772 842.326 381.772C841.332 381.772 840.526 380.966 840.526 379.972C840.526 378.978 841.332 378.173 842.326 378.173Z" fill="#464646" stroke="#464646"/>
<path d="M485.823 497.072V542.88M514.973 497.072V542.88M552.453 492.312H657.751M689.876 628.546H727.95" stroke="#464646"/>
<path d="M775.512 796.833V804.757H718.913V796.833H775.512ZM751.192 794.994V795.833H746.671V794.994H751.192ZM777.896 709.954V718.472H753.436V709.954H777.896ZM742.383 709.954V718.472H717.742V709.954H742.383Z" fill="#464646" stroke="#464646"/>
<path d="M626.736 690.417H645.139V702.528H666.08V710.814H657.196V725.473H666.08V745.743H655.292V762.4H618.487V703.164H626.736V690.417Z" fill="#2B2B2B" fill-opacity="0.5"/>
<path d="M879.746 425.588V582.833H879.557V425.588H879.746Z" fill="#464646" stroke="#464646"/>
<path d="M844.552 304.322H867.753V251.375M291.288 567.866H303.186V545.259" stroke="#464646"/>
</g>
</g>
<mask id="mask2_377_8177" style="mask-type:alpha" maskUnits="userSpaceOnUse" x="103" y="155" width="818" height="699">
<path opacity="0.8" fill-rule="evenodd" clip-rule="evenodd" d="M115.281 223.781H157.044L166.255 170.353L220.297 165.439V161.756H251.002V177.107H260.829V164.825H285.393V160.527H289.691V158.071H301.36V160.527H335.75V179.564H339.435V170.967H436.465V212.111H438.922V208.426H532.881L535.951 199.215V155H604.732V159.914H610.258L611.488 158.07H656.317V164.825H658.774V158.071H716.501V155H763.787V188.163H753.962V195.531H832.568L857.747 201.673V230.537H864.502V228.08H901.963V315.284H915.473V349.674H921V376.081H915.473V416.613H909.947V425.21H906.876V469.426H909.947V492.762H906.876V536.978H909.947V582.423H906.876V626.639H831.954V676.997H845.465V708.316H838.709V712.615H845.465V753.146H838.709V766.042H844.237V799.819L838.709 799.205V802.276H777.912V797.977H776.07V805.347H718.342V797.977H706.675V802.276H683.952V797.977H678.425V802.276H631.137V761.744H613.328V805.347H556.216L550.689 794.906L542.092 799.205L539.021 805.347L474.539 837.894H467.783L456.73 843.421L461.642 853.247L335.749 812.101V809.646H322.239L285.391 734.723H229.507L228.279 675.154H291.533V478.024H307.499L304.43 473.111H244.246V464.514H219.682V473.111H162.569V388.363L164.411 385.906H152.744V347.217L161.955 341.076V337.391L160.112 336.164V320.81L161.955 319.582V315.284H110.37L109.141 313.442L106.685 233.606H103V231.151L113.441 221.324H115.282L115.281 223.781ZM260.213 196.76V204.129H335.749V197.988H339.434V206.586H398.388V213.341H395.318V256.943L404.53 266.155H437.077V229.921H438.306V234.834H487.435V236.063H438.306V266.155H458.571L460.414 267.997H606.574V216.411L604.117 214.569L603.503 193.075H605.345L604.731 186.319H609.029L610.257 188.163H656.93L656.316 180.793H658.773L659.387 185.707H701.146V188.163H737.993V195.531H676.582L658.773 199.216V220.71L671.054 221.939L676.582 274.139H660.001V289.491H676.582V301.773H658.773V338.005L661.229 339.848V377.924L624.997 395.733H622.54L620.698 393.89H600.432L599.204 395.733H593.062V394.504H542.706V395.733H505.858L488.663 360.113V342.918H491.12V333.707H489.892L489.277 271.682H392.861V259.399H391.634L390.406 223.781H333.906V205.358H251.615V196.76H260.213ZM190.204 240.976H209.856V245.889H195.117V260.627H190.204V240.976ZM267.582 240.976V260.627H262.67V245.889H247.931V240.976H267.582ZM333.906 263.084H343.733V276.594H333.906V263.084ZM190.204 323.267H209.856V318.354H195.117V303.615H190.204V323.267ZM267.582 303.615H262.67V318.354H247.931V323.267H267.582V303.615ZM289.076 385.906H261.442V388.363H267.582V404.33L279.865 427.666H297.06V426.438H310.57V427.666H328.993V475.567L325.309 476.795V478.024H348.646V495.219H367.069V512.414H381.808V496.447H394.089V485.392H390.406V486.622H386.721V485.392H381.808V417.841H395.318V416.613L391.634 415.998V340.462H447.518V333.093H448.132V324.495H447.518V319.582H375.052L349.873 315.897H333.292V385.906H316.711V387.135H289.076V385.906ZM416.197 492.762V474.339H414.969V567.685H404.53L401.459 572.598H408.829V584.88H440.148V596.547H454.887V584.88H487.435V580.581H468.398V554.788H476.381V543.734H468.398V497.061H486.207V492.762H416.197ZM336.977 585.494L341.276 567.685H368.297V534.522H369.526V567.685H379.351L383.036 572.598H375.666V636.464H395.932V624.183H407.6V636.464H454.273L473.311 645.677V663.486H467.169V746.391H473.311V762.973L457.344 771.57H437.077V767.271H357.243V762.973L361.542 761.744V748.233L349.873 742.093V699.105H345.575V657.345H361.542V632.166H336.977V585.494ZM215.997 421.526H185.906V389.591L183.449 387.749V385.906H246.702V388.363H236.42V404.944H215.997V421.526ZM418.04 401.873L416.197 403.716V437.492H414.969V417.841H408.829V416.613H412.514V379.766H443.219V360.113H448.132V396.961L451.817 400.032V403.101H445.061L443.833 401.873H418.04ZM706.06 753.146V765.428H718.341V753.146H706.06ZM755.189 753.146H742.906V765.428H755.189V753.146ZM792.035 753.146H779.753V765.428H792.035V753.146ZM596.747 606.988V627.253H582.623V624.183H556.83V627.253H540.863L537.793 629.71V584.265H514.456V579.966H532.265V523.468H520.598V497.061H514.456V492.148H552.531V519.783H734.922V360.115H735.536V355.201H734.922V349.06H720.798V346.603H715.885L713.429 342.304V271.682H712.201V268.611L732.467 250.802L733.081 252.029H736.766V250.802H763.786L765.014 253.258H792.65L797.563 250.802H815.372L832.567 268.611V285.192H844.236V304.844H839.322V346.603H836.866V387.749H844.236V524.082L836.866 530.224H765.014V549.261H741.064V606.988H736.152V633.395H725.711V608.83H682.723L680.881 610.672H671.054V606.988H596.747ZM682.109 753.146H685.18V765.428H682.109V776.483H653.859V743.934H664.3V704.631H644.034V674.54H669.827V649.361H682.109V674.54H725.097L726.325 672.698H735.536L737.993 674.54H795.106V583.037H880.468V601.46H806.16V714.458L778.524 714.457V710.158H752.732V714.457H742.906V710.158H717.113V714.457H682.109V753.146Z" fill="#1C1C1C"/>
</mask>
<g mask="url(#mask2_377_8177)">
<path d="M261.543 244.236H196.103C194.789 244.236 193.723 245.301 193.723 246.616V318.005C193.723 319.319 194.789 320.384 196.103 320.384H261.543C262.857 320.384 263.922 319.319 263.922 318.005V246.616C263.922 245.301 262.857 244.236 261.543 244.236Z" stroke="#4C4C4C" stroke-opacity="0.25" stroke-width="1.6"/>
</g>
<mask id="mask3_377_8177" style="mask-type:alpha" maskUnits="userSpaceOnUse" x="192" y="243" width="73" height="79">
<mask id="mask4_377_8177" style="mask-type:alpha" maskUnits="userSpaceOnUse" x="103" y="155" width="818" height="699">
<path opacity="0.8" fill-rule="evenodd" clip-rule="evenodd" d="M115.281 223.781H157.044L166.255 170.353L220.297 165.439V161.756H251.002V177.107H260.829V164.825H285.393V160.527H289.691V158.071H301.36V160.527H335.75V179.564H339.435V170.967H436.465V212.111H438.922V208.426H532.881L535.951 199.215V155H604.732V159.914H610.258L611.488 158.07H656.317V164.825H658.774V158.071H716.501V155H763.787V188.16H753.962V195.531H832.568L857.747 201.672V230.535H864.502V228.078H901.963V315.282H915.473V349.673H921V376.079H915.473V416.612H909.947V425.209H906.876V469.425H909.947V492.761H906.876V536.977H909.947V582.422H906.876V626.638H831.954V676.995H845.465V708.315H838.709V712.614H845.465V753.146H838.709V766.041H844.237V799.818L838.709 799.204V802.275H777.912V797.976H776.07V805.346H718.342V797.976H706.675V802.275H683.952V797.976H678.425V802.275H631.137V761.742H613.328V805.346H556.216L550.689 794.905L542.092 799.204L539.021 805.346L474.539 837.893H467.783L456.73 843.42L461.642 853.246L335.749 812.1V809.644H322.239L285.391 734.722H229.507L228.279 675.152H291.533V478.024H307.499L304.43 473.111H244.246V464.514H219.682V473.111H162.569V388.363L164.411 385.907H152.744V347.218L161.955 341.076V337.391L160.112 336.164V320.81L161.955 319.582V315.284H110.37L109.141 313.442L106.685 233.606H103V231.151L113.441 221.324H115.282L115.281 223.781ZM260.213 196.76V204.129H335.749V197.988H339.434V206.586H398.388V213.341H395.318V256.943L404.53 266.155H437.077V229.921H438.306V234.835H487.435V236.063H438.306V266.155H458.571L460.414 267.997H606.574V216.411L604.117 214.569L603.503 193.075H605.345L604.731 186.319H609.029L610.257 188.163H656.93L656.316 180.793H658.773L659.387 185.707H701.146V188.163H737.993V195.532H676.582L658.773 199.216V220.71L671.054 221.939L676.582 274.139H660.001V289.491H676.582V301.773H658.773V338.005L661.229 339.848V377.924L624.997 395.733H622.54L620.698 393.89H600.432L599.204 395.733H593.062V394.505H542.706V395.733H505.858L488.663 360.115V342.919H491.12V333.707H489.892L489.277 271.682H392.861V259.399H391.634L390.406 223.781H333.906V205.358H251.615V196.76H260.213ZM190.204 240.976H209.856V245.889H195.117V260.628H190.204V240.976ZM267.582 240.976V260.628H262.67V245.889H247.931V240.976H267.582ZM333.906 263.084H343.733V276.594H333.906V263.084ZM190.204 323.267H209.856V318.354H195.117V303.615H190.204V323.267ZM267.582 303.615H262.67V318.354H247.931V323.267H267.582V303.615ZM289.076 385.907H261.442V388.363H267.582V404.33L279.865 427.666H297.06V426.438H310.57V427.666H328.993V475.567L325.309 476.796V478.024H348.646V495.219H367.069V512.414H381.808V496.447H394.089V485.394H390.406V486.622H386.721V485.394H381.808V417.841H395.318V416.613L391.634 415.998V340.462H447.518V333.093H448.132V324.495H447.518V319.582H375.052L349.873 315.897H333.292V385.907H316.711V387.135H289.076V385.907ZM416.197 492.762V474.339H414.969V567.685H404.53L401.459 572.598H408.829V584.88H440.148V596.547H454.887V584.88H487.435V580.581H468.398V554.788H476.381V543.734H468.398V497.061H486.207V492.762H416.197ZM336.977 585.494L341.276 567.685H368.297V534.522H369.526V567.685H379.351L383.036 572.598H375.666V636.464H395.932V624.183H407.6V636.464H454.273L473.311 645.677V663.486H467.169V746.391H473.311V762.973L457.344 771.57H437.077V767.271H357.243V762.973L361.542 761.744V748.233L349.873 742.093V699.105H345.575V657.345H361.542V632.166H336.977V585.494ZM215.997 421.526H185.906V389.591L183.449 387.749V385.907H246.702V388.363H236.42V404.944H215.997V421.526ZM418.04 401.873L416.197 403.716V437.492H414.969V417.841H408.829V416.613H412.514V379.766H443.219V360.115H448.132V396.961L451.817 400.032V403.101H445.061L443.833 401.873H418.04ZM706.06 753.147V765.428H718.341V753.147H706.06ZM755.189 753.147H742.906V765.428H755.189V753.147ZM792.035 753.147H779.753V765.428H792.035V753.147ZM596.747 606.988V627.253H582.623V624.183H556.83V627.253H540.863L537.793 629.71V584.265H514.456V579.966H532.265V523.468H520.598V497.061H514.456V492.148H552.531V519.784H734.922V360.115H735.536V355.201H734.922V349.06H720.798V346.603H715.885L713.429 342.304V271.682H712.201V268.611L732.467 250.802L733.081 252.031H736.766V250.802H763.786L765.014 253.258H792.65L797.563 250.802H815.372L832.567 268.611V285.192H844.236V304.844H839.322V346.603H836.866V387.749H844.236V524.083L836.866 530.224H765.014V549.261H741.064V606.988H736.152V633.395H725.711V608.83H682.723L680.881 610.673H671.054V606.988H596.747ZM682.109 753.147H685.18V765.428H682.109V776.483H653.859V743.934H664.3V704.631H644.034V674.54H669.827V649.361H682.109V674.54H725.097L726.325 672.698H735.536L737.993 674.54H795.106V583.037H880.468V601.46H806.16V714.458H778.524V710.159H752.732V714.458H742.906V710.159H717.113V714.458H682.109V753.147Z" fill="#1C1C1C"/>
</mask>
<g mask="url(#mask4_377_8177)">
<path d="M261.543 244.236H196.103C194.789 244.236 193.723 245.301 193.723 246.616V318.005C193.723 319.319 194.789 320.384 196.103 320.384H261.543C262.857 320.384 263.922 319.319 263.922 318.005V246.616C263.922 245.301 262.857 244.236 261.543 244.236Z" fill="#C4C4C4" stroke="#9D9D9D" stroke-opacity="0.25" stroke-width="1.6"/>
</g>
</mask>
<g mask="url(#mask3_377_8177)">
<path d="M229.093 382.889L334.588 277.476L336.729 279.615L231.234 385.029L229.093 382.889ZM216.227 387.17L321.722 281.757L323.864 283.896L218.369 389.31L216.227 387.17ZM211.944 382.889L317.439 277.476L319.581 279.615L214.086 385.029L211.944 382.889ZM207.658 378.608L313.153 273.195L315.295 275.334L209.801 380.748L207.658 378.608ZM203.376 374.328L308.871 268.915L311.013 271.055L205.518 376.469L203.376 374.328ZM199.092 370.047L304.587 264.634L306.728 266.774L201.233 372.189L199.092 370.047ZM194.808 365.766L300.303 260.354L302.445 262.493L196.95 367.907L194.808 365.766ZM190.524 361.485L296.017 256.073L298.159 258.212L192.665 363.626L190.524 361.485ZM186.24 357.204L291.735 251.792L293.877 253.931L188.382 359.345L186.24 357.204ZM181.955 352.925L287.45 247.512L289.591 249.651L184.096 355.065L181.955 352.925ZM177.673 348.644L283.166 243.231L285.308 245.37L179.814 350.784L177.673 348.644ZM173.387 344.363L278.882 238.95L281.023 241.089L175.529 346.503L173.387 344.363ZM169.105 340.082L274.598 234.669L276.74 236.808L171.246 342.222L169.105 340.082ZM164.819 335.801L270.314 230.388L272.456 232.527L166.961 337.941L164.819 335.801ZM160.536 331.52L266.031 226.107L268.172 228.246L162.679 333.66L160.536 331.52ZM156.251 327.239L261.746 221.826L263.888 223.965L158.393 329.379L156.251 327.239ZM151.968 322.959L257.463 217.546L259.604 219.686L154.109 325.1L151.968 322.959ZM147.683 318.678L253.177 213.265L255.319 215.405L149.825 320.819L147.683 318.678ZM143.398 314.397L248.892 208.984L251.034 211.124L145.538 316.538L143.398 314.397ZM139.115 310.116L244.609 204.704L246.751 206.843L141.257 312.257L139.115 310.116ZM134.832 305.835L240.327 200.423L242.469 202.562L136.974 307.976L134.832 305.835ZM130.546 301.554L236.041 196.142L238.183 198.281L132.688 303.695L130.546 301.554Z" fill="#4C4C4C" fill-opacity="0.15"/>
</g>
<path d="M576.329 737.445H510.238C508.924 737.445 507.858 738.51 507.858 739.825V787.514C507.858 788.828 508.924 789.893 510.238 789.893H576.329C577.643 789.893 578.708 788.828 578.708 787.514V739.825C578.708 738.51 577.643 737.445 576.329 737.445Z" stroke="#4C4C4C" stroke-opacity="0.25" stroke-width="1.6"/>
<mask id="mask5_377_8177" style="mask-type:alpha" maskUnits="userSpaceOnUse" x="507" y="736" width="73" height="55">
<path d="M576.329 737.444H510.238C508.924 737.444 507.858 738.509 507.858 739.823V787.512C507.858 788.827 508.924 789.892 510.238 789.892H576.329C577.643 789.892 578.708 788.827 578.708 787.512V739.823C578.708 738.509 577.643 737.444 576.329 737.444Z" fill="#C4C4C4" stroke="#9D9D9D" stroke-opacity="0.25" stroke-width="1.6"/>
</mask>
<g mask="url(#mask5_377_8177)">
<path d="M549.153 846.919L654.648 741.506L656.789 743.645L551.295 849.059L549.153 846.919ZM536.287 851.2L641.782 745.787L643.924 747.926L538.429 853.34L536.287 851.2ZM532.004 846.919L637.499 741.506L639.641 743.645L534.146 849.059L532.004 846.919ZM527.72 842.638L633.214 737.225L635.356 739.364L529.861 844.778L527.72 842.638ZM523.436 838.357L628.931 732.944L631.073 735.083L525.578 840.497L523.436 838.357ZM519.152 834.076L624.647 728.663L626.788 730.802L521.293 836.216L519.152 834.076ZM514.868 829.795L620.363 724.382L622.505 726.521L517.01 831.935L514.868 829.795ZM510.584 825.515L616.079 720.102L618.22 722.242L512.725 827.656L510.584 825.515ZM506.301 821.234L611.795 715.821L613.937 717.961L508.442 823.375L506.301 821.234ZM502.015 816.953L607.51 711.54L609.651 713.68L504.156 819.094L502.015 816.953ZM497.733 812.672L603.228 707.26L605.369 709.399L499.874 814.813L497.733 812.672ZM493.447 808.391L598.942 702.979L601.084 705.118L495.589 810.532L493.447 808.391ZM489.165 804.112L594.66 698.699L596.801 700.838L491.306 806.252L489.165 804.112ZM484.879 799.831L590.374 694.418L592.516 696.557L487.021 801.971L484.879 799.831ZM480.596 795.55L586.091 690.137L588.232 692.276L482.737 797.69L480.596 795.55ZM476.311 791.269L581.806 685.856L583.948 687.995L478.453 793.409L476.311 791.269ZM472.028 786.988L577.523 681.575L579.664 683.714L474.17 789.128L472.028 786.988ZM467.743 782.707L573.238 677.294L575.38 679.433L469.885 784.847L467.743 782.707ZM463.458 778.427L568.953 673.014L571.094 675.154L465.598 780.569L463.458 778.427ZM459.175 774.146L564.67 668.733L566.812 670.873L461.317 776.287L459.175 774.146ZM454.892 769.865L560.387 664.452L562.529 666.592L457.034 772.006L454.892 769.865ZM450.606 765.584L556.101 660.171L558.243 662.311L452.748 767.725L450.606 765.584Z" fill="#4C4C4C" fill-opacity="0.15"/>
</g>
<path d="M345.456 640.911V653.518C345.456 654.183 344.917 654.722 344.251 654.722C343.586 654.722 343.047 655.261 343.047 655.926V700.516C343.047 701.181 343.586 701.72 344.251 701.72C344.917 701.72 345.456 702.259 345.456 702.924V753.929C345.456 754.56 345.205 755.165 344.759 755.612C344.312 756.058 343.707 756.309 343.076 756.309H302.234C301.367 756.309 300.569 755.837 300.151 755.078L287.804 732.694C287.599 732.322 287.297 732.011 286.93 731.795C286.564 731.578 286.146 731.464 285.721 731.464H235.051C234.432 731.464 233.837 731.223 233.393 730.791C232.949 730.359 232.691 729.771 232.673 729.152L231.275 680.084C231.266 679.766 231.321 679.45 231.436 679.153C231.552 678.857 231.725 678.586 231.947 678.358C232.169 678.13 232.434 677.949 232.727 677.825C233.02 677.701 233.335 677.637 233.653 677.637H293.389C294.02 677.637 294.626 677.386 295.072 676.94C295.518 676.494 295.769 675.888 295.769 675.257V640.911C295.769 640.28 296.02 639.674 296.466 639.228C296.912 638.782 297.517 638.531 298.148 638.531H343.076C343.707 638.531 344.312 638.782 344.759 639.228C345.205 639.674 345.456 640.28 345.456 640.911Z" stroke="#4C4C4C" stroke-opacity="0.25" stroke-width="1.5"/>
<path d="M898.917 315.024V312.423C898.917 311.792 898.666 311.187 898.22 310.741C897.774 310.294 897.169 310.044 896.537 310.044H848.389C847.758 310.044 847.153 310.294 846.707 310.741C846.26 311.187 846.01 311.792 846.01 312.423V410.258C846.01 410.889 846.26 411.495 846.707 411.941C847.153 412.387 847.758 412.638 848.389 412.638H910.8C911.431 412.638 912.036 412.387 912.482 411.941C912.929 411.495 913.179 410.889 913.179 410.258V319.784C913.179 319.152 912.929 318.547 912.482 318.101C912.036 317.655 911.431 317.404 910.8 317.404H901.297C900.666 317.404 900.06 317.153 899.614 316.707C899.168 316.261 898.917 315.655 898.917 315.024Z" stroke="#464646" stroke-width="1.5"/>
<mask id="path-62-inside-2_377_8177" fill="white">
<path fill-rule="evenodd" clip-rule="evenodd" d="M115.281 223.781H157.044L166.255 170.353L220.297 165.439V161.756H251.002V177.107H260.829V164.825H285.393V160.527H289.691V158.071H301.36V160.527H335.75V179.564H339.435V170.967H436.465V212.111H438.922V208.426H532.881L535.951 199.215V155H604.732V159.914H610.258L611.488 158.07H656.317V164.825H658.774V158.071H716.501V155H763.787V188.163H753.962V195.531H832.568L857.747 201.673V230.537H864.502V228.08H901.963V315.284H915.473V349.674H921V376.081H915.473V416.613H909.947V425.21H906.876V536.978H909.947V582.423H906.876V626.639H831.954V676.997H845.465V708.316H838.709V712.615H845.465V753.146H838.709V766.042H844.237V799.819L838.709 799.205V802.276H777.912V797.977H776.07V805.347H718.342V797.977H706.675V802.276H683.952V797.977H678.425V802.276H631.137V761.744H613.328V805.347H556.216L550.689 794.906L542.092 799.205L539.021 805.347L474.539 837.894H467.783L456.73 843.421L461.642 853.248L335.749 812.101V809.646H322.239L285.391 734.723H229.507L228.279 675.154H291.533V478.024H307.499L304.43 473.111H244.246V464.514H219.682V473.111H162.569V388.363L164.411 385.906H152.744V347.217L161.955 341.076V337.391L160.112 336.164V320.81L161.955 319.582V315.284H110.37L109.141 313.442L106.685 233.606H103V231.151L113.441 221.324H115.282L115.281 223.781ZM260.213 196.76V204.129H335.749V197.988H339.434V206.586H398.388V213.341H395.318V256.943L404.53 266.155H437.077V229.921H438.306V234.834H487.435V236.063H438.306V266.155H458.571L460.414 267.997H606.574V216.411L604.117 214.569L603.503 193.075H605.345L604.731 186.319H609.029L610.257 188.163H656.93L656.316 180.793H658.773L659.387 185.707H701.146V188.163H737.993V195.531H676.582L658.773 199.216V220.71L671.054 221.939L676.582 274.139H660.001V289.491H676.582V301.773H658.773V338.005L661.229 339.848V377.924L624.997 395.733H622.54L620.698 393.89H600.432L599.204 395.733H593.062V394.504H542.706V395.733H505.858L488.663 360.113V342.918H491.12V333.707H489.892L489.277 271.682H392.861V259.399H391.634L390.406 223.781H333.906V205.358H251.615V196.76H260.213ZM190.204 240.976H209.856V245.889H195.117V260.627H190.204V240.976ZM267.582 240.976V260.627H262.67V245.889H247.931V240.976H267.582ZM333.906 263.084H343.733V276.594H333.906V263.084ZM190.204 323.267H209.856V318.354H195.117V303.615H190.204V323.267ZM267.582 303.615H262.67V318.354H247.931V323.267H267.582V303.615ZM289.076 385.906H261.442V388.363H267.582V404.33L279.865 427.666H297.06V426.438H310.57V427.666H328.993V475.567L325.309 476.795V478.024H348.646V495.219H367.069V512.414H381.808V496.447H394.089V485.392H390.406V486.622H386.721V485.392H381.808V417.841H395.318V416.613L391.634 415.998V340.462H447.518V333.093H448.132V324.495H447.518V319.582H375.052L349.873 315.897H333.292V385.906H316.711V387.135H289.076V385.906ZM416.197 492.762V474.339H414.969V567.685H404.53L401.459 572.598H408.829V584.88H440.148V596.547H454.887V584.88H487.435V580.581H468.398V554.788H476.381V543.734H468.398V497.061H486.207V492.762H416.197ZM336.977 585.494L341.276 567.685H368.297V534.522H369.526V567.685H379.351L383.036 572.598H375.666V636.464H395.932V624.183H407.6V636.464H454.273L473.311 645.677V663.486H467.169V746.391H473.311V762.973L457.344 771.57H437.077V767.271H357.243V762.973L361.542 761.744V748.233L349.873 742.093V699.105H345.575V657.345H361.542V632.166H336.977V585.494ZM215.997 421.526H185.906V389.591L183.449 387.749V385.906H246.702V388.363H236.42V404.944H215.997V421.526ZM418.04 401.873L416.197 403.716V437.492H414.969V417.841H408.829V416.613H412.514V379.766H443.219V360.113H448.132V396.961L451.817 400.032V403.101H445.061L443.833 401.873H418.04ZM706.06 753.146V765.428H718.341V753.146H706.06ZM755.189 753.146H742.906V765.428H755.189V753.146ZM792.035 753.146H779.754V765.428H792.035V753.146ZM596.747 606.988V627.253H582.623V624.183H556.83V627.253H540.863L537.793 629.71V584.265H514.456V579.966H532.265V523.468H520.598V497.061H514.456V492.148H552.531V519.783H734.922V360.115H735.536V355.201H734.922V349.06H720.798V346.603H715.885L713.429 342.304V271.682H712.201V268.611L732.467 250.802L733.081 252.029H736.765V250.802H763.786L765.014 253.258H792.65L797.563 250.802H815.372L832.567 268.611V285.192H844.236V304.844H839.322V346.603H836.866V387.749H844.236V524.082L836.866 530.224H765.014V549.261H741.064V606.988H736.152V633.395H725.711V608.83H682.723L680.881 610.672H671.054V606.988H596.747ZM682.109 753.146H685.18V765.428H682.109V776.483H653.859V743.934H664.3V704.631H644.034V674.54H669.827V649.361H682.109V674.54H725.097L726.325 672.698H735.536L737.993 674.54H795.106V583.037H880.468V601.46H806.16V714.458L778.524 714.457V710.158H752.732V714.457H742.906V710.158H717.113V714.457H682.109V753.146Z"/>
</mask>
<g filter="url(#filter2_i_377_8177)">
<path fill-rule="evenodd" clip-rule="evenodd" d="M115.281 223.781H157.044L166.255 170.353L220.297 165.439V161.756H251.002V177.107H260.829V164.825H285.393V160.527H289.691V158.071H301.36V160.527H335.75V179.564H339.435V170.967H436.465V212.111H438.922V208.426H532.881L535.951 199.215V155H604.732V159.914H610.258L611.488 158.07H656.317V164.825H658.774V158.071H716.501V155H763.787V188.163H753.962V195.531H832.568L857.747 201.673V230.537H864.502V228.08H901.963V315.284H915.473V349.674H921V376.081H915.473V416.613H909.947V425.21H906.876V536.978H909.947V582.423H906.876V626.639H831.954V676.997H845.465V708.316H838.709V712.615H845.465V753.146H838.709V766.042H844.237V799.819L838.709 799.205V802.276H777.912V797.977H776.07V805.347H718.342V797.977H706.675V802.276H683.952V797.977H678.425V802.276H631.137V761.744H613.328V805.347H556.216L550.689 794.906L542.092 799.205L539.021 805.347L474.539 837.894H467.783L456.73 843.421L461.642 853.248L335.749 812.101V809.646H322.239L285.391 734.723H229.507L228.279 675.154H291.533V478.024H307.499L304.43 473.111H244.246V464.514H219.682V473.111H162.569V388.363L164.411 385.906H152.744V347.217L161.955 341.076V337.391L160.112 336.164V320.81L161.955 319.582V315.284H110.37L109.141 313.442L106.685 233.606H103V231.151L113.441 221.324H115.282L115.281 223.781ZM260.213 196.76V204.129H335.749V197.988H339.434V206.586H398.388V213.341H395.318V256.943L404.53 266.155H437.077V229.921H438.306V234.834H487.435V236.063H438.306V266.155H458.571L460.414 267.997H606.574V216.411L604.117 214.569L603.503 193.075H605.345L604.731 186.319H609.029L610.257 188.163H656.93L656.316 180.793H658.773L659.387 185.707H701.146V188.163H737.993V195.531H676.582L658.773 199.216V220.71L671.054 221.939L676.582 274.139H660.001V289.491H676.582V301.773H658.773V338.005L661.229 339.848V377.924L624.997 395.733H622.54L620.698 393.89H600.432L599.204 395.733H593.062V394.504H542.706V395.733H505.858L488.663 360.113V342.918H491.12V333.707H489.892L489.277 271.682H392.861V259.399H391.634L390.406 223.781H333.906V205.358H251.615V196.76H260.213ZM190.204 240.976H209.856V245.889H195.117V260.627H190.204V240.976ZM267.582 240.976V260.627H262.67V245.889H247.931V240.976H267.582ZM333.906 263.084H343.733V276.594H333.906V263.084ZM190.204 323.267H209.856V318.354H195.117V303.615H190.204V323.267ZM267.582 303.615H262.67V318.354H247.931V323.267H267.582V303.615ZM289.076 385.906H261.442V388.363H267.582V404.33L279.865 427.666H297.06V426.438H310.57V427.666H328.993V475.567L325.309 476.795V478.024H348.646V495.219H367.069V512.414H381.808V496.447H394.089V485.392H390.406V486.622H386.721V485.392H381.808V417.841H395.318V416.613L391.634 415.998V340.462H447.518V333.093H448.132V324.495H447.518V319.582H375.052L349.873 315.897H333.292V385.906H316.711V387.135H289.076V385.906ZM416.197 492.762V474.339H414.969V567.685H404.53L401.459 572.598H408.829V584.88H440.148V596.547H454.887V584.88H487.435V580.581H468.398V554.788H476.381V543.734H468.398V497.061H486.207V492.762H416.197ZM336.977 585.494L341.276 567.685H368.297V534.522H369.526V567.685H379.351L383.036 572.598H375.666V636.464H395.932V624.183H407.6V636.464H454.273L473.311 645.677V663.486H467.169V746.391H473.311V762.973L457.344 771.57H437.077V767.271H357.243V762.973L361.542 761.744V748.233L349.873 742.093V699.105H345.575V657.345H361.542V632.166H336.977V585.494ZM215.997 421.526H185.906V389.591L183.449 387.749V385.906H246.702V388.363H236.42V404.944H215.997V421.526ZM418.04 401.873L416.197 403.716V437.492H414.969V417.841H408.829V416.613H412.514V379.766H443.219V360.113H448.132V396.961L451.817 400.032V403.101H445.061L443.833 401.873H418.04ZM706.06 753.146V765.428H718.341V753.146H706.06ZM755.189 753.146H742.906V765.428H755.189V753.146ZM792.035 753.146H779.754V765.428H792.035V753.146ZM596.747 606.988V627.253H582.623V624.183H556.83V627.253H540.863L537.793 629.71V584.265H514.456V579.966H532.265V523.468H520.598V497.061H514.456V492.148H552.531V519.783H734.922V360.115H735.536V355.201H734.922V349.06H720.798V346.603H715.885L713.429 342.304V271.682H712.201V268.611L732.467 250.802L733.081 252.029H736.765V250.802H763.786L765.014 253.258H792.65L797.563 250.802H815.372L832.567 268.611V285.192H844.236V304.844H839.322V346.603H836.866V387.749H844.236V524.082L836.866 530.224H765.014V549.261H741.064V606.988H736.152V633.395H725.711V608.83H682.723L680.881 610.672H671.054V606.988H596.747ZM682.109 753.146H685.18V765.428H682.109V776.483H653.859V743.934H664.3V704.631H644.034V674.54H669.827V649.361H682.109V674.54H725.097L726.325 672.698H735.536L737.993 674.54H795.106V583.037H880.468V601.46H806.16V714.458L778.524 714.457V710.158H752.732V714.457H742.906V710.158H717.113V714.457H682.109V753.146Z" fill="#313131"/>
</g>
<path fill-rule="evenodd" clip-rule="evenodd" d="M115.281 223.781H157.044L166.255 170.353L220.297 165.439V161.756H251.002V177.107H260.829V164.825H285.393V160.527H289.691V158.071H301.36V160.527H335.75V179.564H339.435V170.967H436.465V212.111H438.922V208.426H532.881L535.951 199.215V155H604.732V159.914H610.258L611.488 158.07H656.317V164.825H658.774V158.071H716.501V155H763.787V188.163H753.962V195.531H832.568L857.747 201.673V230.537H864.502V228.08H901.963V315.284H915.473V349.674H921V376.081H915.473V416.613H909.947V425.21H906.876V536.978H909.947V582.423H906.876V626.639H831.954V676.997H845.465V708.316H838.709V712.615H845.465V753.146H838.709V766.042H844.237V799.819L838.709 799.205V802.276H777.912V797.977H776.07V805.347H718.342V797.977H706.675V802.276H683.952V797.977H678.425V802.276H631.137V761.744H613.328V805.347H556.216L550.689 794.906L542.092 799.205L539.021 805.347L474.539 837.894H467.783L456.73 843.421L461.642 853.248L335.749 812.101V809.646H322.239L285.391 734.723H229.507L228.279 675.154H291.533V478.024H307.499L304.43 473.111H244.246V464.514H219.682V473.111H162.569V388.363L164.411 385.906H152.744V347.217L161.955 341.076V337.391L160.112 336.164V320.81L161.955 319.582V315.284H110.37L109.141 313.442L106.685 233.606H103V231.151L113.441 221.324H115.282L115.281 223.781ZM260.213 196.76V204.129H335.749V197.988H339.434V206.586H398.388V213.341H395.318V256.943L404.53 266.155H437.077V229.921H438.306V234.834H487.435V236.063H438.306V266.155H458.571L460.414 267.997H606.574V216.411L604.117 214.569L603.503 193.075H605.345L604.731 186.319H609.029L610.257 188.163H656.93L656.316 180.793H658.773L659.387 185.707H701.146V188.163H737.993V195.531H676.582L658.773 199.216V220.71L671.054 221.939L676.582 274.139H660.001V289.491H676.582V301.773H658.773V338.005L661.229 339.848V377.924L624.997 395.733H622.54L620.698 393.89H600.432L599.204 395.733H593.062V394.504H542.706V395.733H505.858L488.663 360.113V342.918H491.12V333.707H489.892L489.277 271.682H392.861V259.399H391.634L390.406 223.781H333.906V205.358H251.615V196.76H260.213ZM190.204 240.976H209.856V245.889H195.117V260.627H190.204V240.976ZM267.582 240.976V260.627H262.67V245.889H247.931V240.976H267.582ZM333.906 263.084H343.733V276.594H333.906V263.084ZM190.204 323.267H209.856V318.354H195.117V303.615H190.204V323.267ZM267.582 303.615H262.67V318.354H247.931V323.267H267.582V303.615ZM289.076 385.906H261.442V388.363H267.582V404.33L279.865 427.666H297.06V426.438H310.57V427.666H328.993V475.567L325.309 476.795V478.024H348.646V495.219H367.069V512.414H381.808V496.447H394.089V485.392H390.406V486.622H386.721V485.392H381.808V417.841H395.318V416.613L391.634 415.998V340.462H447.518V333.093H448.132V324.495H447.518V319.582H375.052L349.873 315.897H333.292V385.906H316.711V387.135H289.076V385.906ZM416.197 492.762V474.339H414.969V567.685H404.53L401.459 572.598H408.829V584.88H440.148V596.547H454.887V584.88H487.435V580.581H468.398V554.788H476.381V543.734H468.398V497.061H486.207V492.762H416.197ZM336.977 585.494L341.276 567.685H368.297V534.522H369.526V567.685H379.351L383.036 572.598H375.666V636.464H395.932V624.183H407.6V636.464H454.273L473.311 645.677V663.486H467.169V746.391H473.311V762.973L457.344 771.57H437.077V767.271H357.243V762.973L361.542 761.744V748.233L349.873 742.093V699.105H345.575V657.345H361.542V632.166H336.977V585.494ZM215.997 421.526H185.906V389.591L183.449 387.749V385.906H246.702V388.363H236.42V404.944H215.997V421.526ZM418.04 401.873L416.197 403.716V437.492H414.969V417.841H408.829V416.613H412.514V379.766H443.219V360.113H448.132V396.961L451.817 400.032V403.101H445.061L443.833 401.873H418.04ZM706.06 753.146V765.428H718.341V753.146H706.06ZM755.189 753.146H742.906V765.428H755.189V753.146ZM792.035 753.146H779.754V765.428H792.035V753.146ZM596.747 606.988V627.253H582.623V624.183H556.83V627.253H540.863L537.793 629.71V584.265H514.456V579.966H532.265V523.468H520.598V497.061H514.456V492.148H552.531V519.783H734.922V360.115H735.536V355.201H734.922V349.06H720.798V346.603H715.885L713.429 342.304V271.682H712.201V268.611L732.467 250.802L733.081 252.029H736.765V250.802H763.786L765.014 253.258H792.65L797.563 250.802H815.372L832.567 268.611V285.192H844.236V304.844H839.322V346.603H836.866V387.749H844.236V524.082L836.866 530.224H765.014V549.261H741.064V606.988H736.152V633.395H725.711V608.83H682.723L680.881 610.672H671.054V606.988H596.747ZM682.109 753.146H685.18V765.428H682.109V776.483H653.859V743.934H664.3V704.631H644.034V674.54H669.827V649.361H682.109V674.54H725.097L726.325 672.698H735.536L737.993 674.54H795.106V583.037H880.468V601.46H806.16V714.458L778.524 714.457V710.158H752.732V714.457H742.906V710.158H717.113V714.457H682.109V753.146Z" stroke="#464646" stroke-width="2" mask="url(#path-62-inside-2_377_8177)"/>
<mask id="mask6_377_8177" style="mask-type:alpha" maskUnits="userSpaceOnUse" x="294" y="183" width="284" height="284">
<path d="M420.049 463.245L574.505 308.908L577.641 312.041L423.185 466.379L420.049 463.245ZM413.779 456.977L568.234 302.64L571.371 305.773L416.915 460.111L413.779 456.977ZM407.505 450.709L561.96 296.373L565.097 299.505L410.641 453.843L407.505 450.709ZM401.232 444.443L555.688 290.106L558.824 293.239L404.368 447.577L401.232 444.443ZM394.96 438.173L549.416 283.837L552.553 286.969L398.097 441.307L394.96 438.173ZM388.688 431.907L543.144 277.57L546.28 280.703L391.824 435.041L388.688 431.907ZM382.416 425.639L536.872 271.302L540.008 274.435L385.553 428.773L382.416 425.639ZM376.143 419.372L530.599 265.035L533.736 268.168L379.28 422.506L376.143 419.372ZM369.872 413.104L524.328 258.767L527.464 261.9L373.008 416.238L369.872 413.104ZM363.599 406.837L518.055 252.5L521.191 255.633L366.737 409.971L363.599 406.837ZM357.328 400.568L511.784 246.231L514.92 249.364L360.464 403.702L357.328 400.568ZM351.054 394.303L505.51 239.966L508.646 243.099L354.19 397.437L351.054 394.303ZM344.781 388.033L499.237 233.697L502.373 236.829L347.918 391.167L344.781 388.033ZM338.51 381.767L492.965 227.43L496.102 230.563L341.646 384.901L338.51 381.767ZM332.237 375.499L486.693 221.162L489.829 224.295L335.373 378.633L332.237 375.499ZM325.965 369.231L480.421 214.894L483.558 218.027L329.103 372.365L325.965 369.231ZM319.693 362.964L474.149 208.627L477.285 211.76L322.829 366.098L319.693 362.964ZM313.421 356.697L467.877 202.36L471.013 205.493L316.558 359.831L313.421 356.697ZM307.149 350.429L461.604 196.093L464.741 199.225L310.285 353.563L307.149 350.429ZM300.877 344.161L455.333 189.825L458.469 192.957L304.013 347.295L300.877 344.161ZM294.604 337.893L449.06 183.557L452.196 186.689L297.741 341.027L294.604 337.893Z" fill="#434343"/>
</mask>
<g mask="url(#mask6_377_8177)">
<path d="M424.547 235.907H438.825V265.653H448.344V403.076H444.774L443.584 401.887H424.547V235.907Z" fill="#313131"/>
</g>
<g filter="url(#filter3_di_377_8177)">
<mask id="mask7_377_8177" style="mask-type:alpha" maskUnits="userSpaceOnUse" x="103" y="155" width="818" height="699">
<path opacity="0.8" fill-rule="evenodd" clip-rule="evenodd" d="M115.281 223.781H157.044L166.255 170.353L220.297 165.439V161.756H251.002V177.107H260.829V164.825H285.393V160.527H289.691V158.071H301.36V160.527H335.75V179.564H339.435V170.967H436.465V212.111H438.922V208.426H532.881L535.951 199.215V155H604.732V159.914H610.258L611.488 158.07H656.317V164.825H658.774V158.071H716.501V155H763.787V188.163H753.962V195.531H832.568L857.747 201.673V230.537H864.502V228.08H901.963V315.284H915.473V349.674H921V376.081H915.473V416.613H909.947V425.21H906.876V469.426H909.947V492.762H906.876V536.978H909.947V582.423H906.876V626.639H831.954V676.997H845.465V708.316H838.709V712.615H845.465V753.146H838.709V766.042H844.237V799.819L838.709 799.205V802.276H777.912V797.977H776.07V805.347H718.342V797.977H706.675V802.276H683.952V797.977H678.425V802.276H631.137V761.744H613.328V805.347H556.216L550.689 794.906L542.092 799.205L539.021 805.347L474.539 837.894H467.783L456.73 843.421L461.642 853.247L335.749 812.101V809.646H322.239L285.391 734.723H229.507L228.279 675.154H291.533V478.024H307.499L304.43 473.111H244.246V464.514H219.682V473.111H162.569V388.363L164.411 385.906H152.744V347.217L161.955 341.076V337.391L160.112 336.164V320.81L161.955 319.582V315.284H110.37L109.141 313.442L106.685 233.606H103V231.151L113.441 221.324H115.282L115.281 223.781ZM260.213 196.76V204.129H335.749V197.988H339.434V206.586H398.388V213.341H395.318V256.943L404.53 266.155H437.077V229.921H438.306V234.834H487.435V236.063H438.306V266.155H458.571L460.414 267.997H606.574V216.411L604.117 214.569L603.503 193.075H605.345L604.731 186.319H609.029L610.257 188.163H656.93L656.316 180.793H658.773L659.387 185.707H701.146V188.163H737.993V195.531H676.582L658.773 199.216V220.71L671.054 221.939L676.582 274.139H660.001V289.491H676.582V301.773H658.773V338.005L661.229 339.848V377.924L624.997 395.733H622.54L620.698 393.89H600.432L599.204 395.733H593.062V394.504H542.706V395.733H505.858L488.663 360.113V342.918H491.12V333.707H489.892L489.277 271.682H392.861V259.399H391.634L390.406 223.781H333.906V205.358H251.615V196.76H260.213ZM190.204 240.976H209.856V245.889H195.117V260.627H190.204V240.976ZM267.582 240.976V260.627H262.67V245.889H247.931V240.976H267.582ZM333.906 263.084H343.733V276.594H333.906V263.084ZM190.204 323.267H209.856V318.354H195.117V303.615H190.204V323.267ZM267.582 303.615H262.67V318.354H247.931V323.267H267.582V303.615ZM289.076 385.906H261.442V388.363H267.582V404.33L279.865 427.666H297.06V426.438H310.57V427.666H328.993V475.567L325.309 476.795V478.024H348.646V495.219H367.069V512.414H381.808V496.447H394.089V485.392H390.406V486.622H386.721V485.392H381.808V417.841H395.318V416.613L391.634 415.998V340.462H447.518V333.093H448.132V324.495H447.518V319.582H375.052L349.873 315.897H333.292V385.906H316.711V387.135H289.076V385.906ZM416.197 492.762V474.339H414.969V567.685H404.53L401.459 572.598H408.829V584.88H440.148V596.547H454.887V584.88H487.435V580.581H468.398V554.788H476.381V543.734H468.398V497.061H486.207V492.762H416.197ZM336.977 585.494L341.276 567.685H368.297V534.522H369.526V567.685H379.351L383.036 572.598H375.666V636.464H395.932V624.183H407.6V636.464H454.273L473.311 645.677V663.486H467.169V746.391H473.311V762.973L457.344 771.57H437.077V767.271H357.243V762.973L361.542 761.744V748.233L349.873 742.093V699.105H345.575V657.345H361.542V632.166H336.977V585.494ZM215.997 421.526H185.906V389.591L183.449 387.749V385.906H246.702V388.363H236.42V404.944H215.997V421.526ZM418.04 401.873L416.197 403.716V437.492H414.969V417.841H408.829V416.613H412.514V379.766H443.219V360.113H448.132V396.961L451.817 400.032V403.101H445.061L443.833 401.873H418.04ZM706.06 753.146V765.428H718.341V753.146H706.06ZM755.189 753.146H742.906V765.428H755.189V753.146ZM792.035 753.146H779.753V765.428H792.035V753.146ZM596.747 606.988V627.253H582.623V624.183H556.83V627.253H540.863L537.793 629.71V584.265H514.456V579.966H532.265V523.468H520.598V497.061H514.456V492.148H552.531V519.783H734.922V360.115H735.536V355.201H734.922V349.06H720.798V346.603H715.885L713.429 342.304V271.682H712.201V268.611L732.467 250.802L733.081 252.029H736.766V250.802H763.786L765.014 253.258H792.65L797.563 250.802H815.372L832.567 268.611V285.192H844.236V304.844H839.322V346.603H836.866V387.749H844.236V524.082L836.866 530.224H765.014V549.261H741.064V606.988H736.152V633.395H725.711V608.83H682.723L680.881 610.672H671.054V606.988H596.747ZM682.109 753.146H685.18V765.428H682.109V776.483H653.859V743.934H664.3V704.631H644.034V674.54H669.827V649.361H682.109V674.54H725.097L726.325 672.698H735.536L737.993 674.54H795.106V583.037H880.468V601.46H806.16V714.458L778.524 714.457V710.158H752.732V714.457H742.906V710.158H717.113V714.457H682.109V753.146Z" fill="#1C1C1C"/>
</mask>
<g mask="url(#mask7_377_8177)">
<path d="M806.272 568.799V571.868H809.729V568.799H830.837V571.868H833.68V568.799H853.852L856.629 571.574V582.537H794.605V674.04H780.251V571.575L783.03 568.799H806.272Z" fill="#464646" stroke="#464646"/>
<path d="M219.098 462.472V472.514H190.654V462.472H219.098ZM167.828 445.814V472.418H163.307V445.814H167.828ZM283.65 468.421V472.181H266.802V468.421H283.65ZM263.422 468.421V472.181H246.576V468.421H263.422ZM279.921 428.202L277.537 429.435L264.596 404.387L266.981 403.154L279.921 428.202ZM234.867 405.361V409.12H218.02V405.361H234.867ZM152.858 263.584V283.464H145.26V263.584H152.858ZM720.599 216.846L710.871 219.383L708.334 209.654L718.062 207.117L720.599 216.846ZM170.533 202.976L168.396 213.99H158.617L160.749 200.814L170.533 202.976ZM856.809 571.464L856.642 571.314L853.44 568.452L854.673 563.606H878.557V582.833H856.809V571.464Z" fill="#464646" stroke="#464646"/>
<path d="M676.193 301.942V314.435L658.941 323.359" stroke="#464646"/>
<path d="M260.94 289.376V296.974H244.744V289.376H260.94ZM263.397 246.389V265.041H244.744V246.389H263.397ZM214.268 246.389V265.041H195.615V246.389H214.268ZM723.234 206.01L713.18 206.051L713.138 195.998L723.192 195.956L723.234 206.01ZM762.056 161.642V182.75H754.458V161.642H762.056ZM705.558 159.185V168.01H696.732V159.185H705.558ZM726.689 162.855L719.552 165.455L717.371 159.47L724.508 156.87L726.689 162.855Z" fill="#464646" stroke="#464646"/>
<path d="M394.303 418.448V432.916H382.215V418.448H394.303ZM462.368 321.31V335.048H448.63V321.31H462.368ZM331.954 330.097L327.44 330.459L326.27 315.857L330.783 315.494L331.954 330.097ZM241.221 317.643L235.334 317.993L234.516 304.28L240.401 303.929L241.221 317.643ZM262.169 296.746V317.855H242.289V296.746H262.169Z" fill="#464646" stroke="#464646"/>
<path d="M431.686 379.875V369.167H412.649V340.611M424.547 401.887V459.593L445.369 468.516M444.774 401.887V439.961L465.596 448.884M487.608 235.313H572.679M252.024 204.377H219.899V165.114M339.476 198.428H356.728V206.757M193.723 207.947L171.712 222.82H155.649" stroke="#464646"/>
<path d="M474.65 710.658V739.136H468.28V710.658H474.65ZM474.65 667.67V696.148H468.28V667.67H474.65ZM480.792 555.903V567.185H469.51V555.903H480.792ZM657.658 508.875V520.157H642.69V508.875H657.658ZM475.153 485.078V493.28H454.99V485.078H475.153ZM421.668 464.852V479.32H416.719V464.852H421.668Z" fill="#464646" stroke="#464646"/>
<path d="M472.079 699.604C474.177 699.605 475.878 701.305 475.878 703.403C475.878 705.501 474.177 707.202 472.079 707.202C469.981 707.202 468.281 705.501 468.281 703.403C468.281 701.305 469.981 699.604 472.079 699.604Z" fill="#464646" stroke="#464646"/>
<path d="M518.519 747.838L501.171 757.502L491.508 740.154L508.856 730.49L518.519 747.838Z" fill="#464646" stroke="#464646"/>
<path d="M531.149 730.31V740.365H513.726V730.31H531.149Z" fill="#464646" stroke="#464646"/>
<path d="M579.695 750.586L561.975 756.413L557.298 742.195L575.017 736.366L579.695 750.586ZM530.755 732.414L517.645 737.713L513.876 728.392L526.987 723.092L530.755 732.414Z" fill="#464646" stroke="#464646"/>
<path d="M591.061 785.509L573.838 790.663L569.119 774.89L586.34 769.735L591.061 785.509ZM591.513 744.235L585.39 748.733L573.86 733.041L579.982 728.543L591.513 744.235Z" fill="#464646" stroke="#464646"/>
<path d="M464.901 823.097L447.166 828.872L441.391 811.136L459.126 805.361L464.901 823.097ZM577.656 797.124L562.191 804.408L555.476 790.153L570.941 782.869L577.656 797.124ZM457.363 771.824V781.532H436.946V771.824H457.363ZM653.058 746.503L651.99 760.112L637.213 758.951L638.283 745.342L653.058 746.503Z" fill="#464646" stroke="#464646"/>
<path d="M471.85 836.07L457.048 838.278L454.839 823.475L469.642 821.266L471.85 836.07Z" fill="#464646" stroke="#464646"/>
<path d="M730.008 383.95C731.427 383.95 732.578 385.102 732.578 386.521C732.578 387.941 731.427 389.092 730.008 389.092C728.588 389.092 727.437 387.941 727.436 386.521C727.436 385.102 728.588 383.95 730.008 383.95Z" fill="#464646" stroke="#464646"/>
<path d="M725.095 387.634C726.515 387.634 727.665 388.786 727.665 390.205C727.665 391.625 726.515 392.775 725.095 392.776C723.675 392.776 722.524 391.625 722.524 390.205C722.524 388.785 723.675 387.634 725.095 387.634Z" fill="#464646" stroke="#464646"/>
<path d="M677.162 452.704C678.918 452.704 680.342 454.127 680.342 455.884C680.342 457.64 678.918 459.064 677.162 459.064C675.405 459.064 673.982 457.64 673.982 455.884C673.982 454.128 675.406 452.704 677.162 452.704Z" fill="#464646" stroke="#464646"/>
<path d="M731.237 388.863C732.657 388.863 733.807 390.015 733.807 391.435C733.807 392.854 732.657 394.005 731.237 394.005C729.817 394.005 728.666 392.854 728.666 391.435C728.666 390.015 729.817 388.863 731.237 388.863Z" fill="#464646" stroke="#464646"/>
<path d="M701.613 445.843L691.511 455.154L682.2 445.053L692.302 435.743L701.613 445.843ZM733.807 398.689V403.83H727.436V398.689H733.807ZM731.35 391.319V397.689H726.21V391.319H731.35Z" fill="#464646" stroke="#464646"/>
<path d="M699.801 465.358L691.065 473.41L678.513 459.792L687.249 451.74L699.801 465.358Z" fill="#464646" stroke="#464646"/>
<path d="M688.837 470.766L680.454 478.491L672.728 470.109L681.11 462.382L688.837 470.766Z" fill="#464646" stroke="#464646"/>
<path d="M643.589 675.04V691.235H624.937V678.862H639.061V675.04H643.589ZM748.867 573.125V579.264H741.538V573.125H748.867ZM748.867 565.986V572.125H741.538V565.986H748.867ZM366.759 555.25L363.839 566.148L352.943 563.227L355.861 552.33L366.759 555.25ZM764.334 549.329V564.986H741.538V549.329H764.334ZM414.467 526.424V547.533H404.382V526.424H414.467ZM392.823 501.059L387.397 509.522L386.17 508.736L391.597 500.273L392.823 501.059ZM366.937 495.787V509.065H352.469V495.787H366.937ZM701.871 472.382V486.121H688.133V472.382H701.871ZM392.823 475.601L387.397 484.063L386.17 483.277L391.597 474.814L392.823 475.601ZM674.822 457.303V468.265H673.982V457.303H674.822ZM619.177 435.106V435.296H450.033V435.106H619.177ZM241.577 388.704V402.425H237.057V388.704H241.577Z" fill="#464646" stroke="#464646"/>
<path d="M449.033 402.981V435.296H448.844V402.981H449.033ZM460.088 426.938V434.536H450.033V426.938H460.088Z" fill="#464646" stroke="#464646"/>
<path d="M464.029 430.157L463.006 431.194L451.83 420.161L452.853 419.124L464.029 430.157Z" fill="#464646" stroke="#464646"/>
<path d="M688.864 662.757C691.301 662.758 693.276 664.733 693.276 667.17C693.276 669.607 691.301 671.582 688.864 671.583C686.427 671.583 684.451 669.607 684.451 667.17C684.451 664.733 686.427 662.757 688.864 662.757Z" fill="#464646" stroke="#464646"/>
<path d="M796.78 745.306C798.536 745.306 799.96 746.73 799.961 748.486C799.961 750.242 798.536 751.667 796.78 751.667C795.024 751.667 793.6 750.242 793.6 748.486C793.6 746.73 795.024 745.307 796.78 745.306Z" fill="#464646" stroke="#464646"/>
<path d="M610.849 627.856V643.513H583.293V627.856H610.849ZM610.849 607.63V626.856H597.57V607.63H610.849ZM621.557 607.63V619.718H611.849V607.63H621.557Z" fill="#464646" stroke="#464646"/>
<path d="M537.291 595.819V630.75L538.103 630.101L541.037 627.753H556.586V649.768L551.966 654.389H529.401L524.78 649.768V595.819H537.291Z" fill="#464646" stroke="#464646"/>
<path d="M169.937 173.923C172.035 173.923 173.736 175.624 173.736 177.722C173.736 179.82 172.035 181.52 169.937 181.521C167.839 181.521 166.138 179.82 166.138 177.722C166.138 175.624 167.839 173.923 169.937 173.923Z" fill="#464646" stroke="#464646"/>
<path d="M183.991 205.794L182.652 212.198L170.097 209.573L171.436 203.169L183.991 205.794Z" fill="#464646" stroke="#464646"/>
<path d="M197.823 189.681L194.005 207.938L161.322 201.106L165.138 182.848L197.823 189.681Z" fill="#464646" stroke="#464646"/>
<path d="M191.432 183.749C193.19 183.749 194.617 185.174 194.617 186.933C194.617 188.692 193.191 190.119 191.432 190.119C189.673 190.118 188.247 188.692 188.247 186.933C188.247 185.174 189.673 183.749 191.432 183.749Z" fill="#464646" stroke="#464646"/>
<path d="M334.983 165.924L330.902 170.817L326.011 166.738L330.091 161.845L334.983 165.924ZM323.578 161.642V165.555H319.665V161.642H323.578ZM249.886 162.869V165.555H239.831V162.869H249.886Z" fill="#464646" stroke="#464646"/>
<path d="M328.697 427.968V442.935H324.555L325.864 443.845C326.529 444.308 327.073 444.925 327.448 445.643C327.823 446.362 328.02 447.16 328.019 447.97L328.008 448.306C327.955 449.088 327.721 449.849 327.321 450.527C326.864 451.301 326.208 451.939 325.422 452.374C324.635 452.809 323.745 453.024 322.846 452.999C321.948 452.973 321.072 452.707 320.311 452.228C319.55 451.749 318.931 451.075 318.519 450.276C318.107 449.477 317.917 448.581 317.969 447.683C318.02 446.786 318.312 445.918 318.812 445.172C319.313 444.425 320.005 443.826 320.815 443.437L321.099 443.302V427.968H328.697Z" fill="#464646" stroke="#464646"/>
<path d="M291.645 427.968V446.619H284.048V427.968H291.645ZM158.719 348.25V355.578H152.58V348.25H158.719ZM397.987 213.801V228.769H395.303V213.801H397.987Z" fill="#464646" stroke="#464646"/>
<path d="M436.578 241.476V266.269H408.1V258.671H430.209V241.476H436.578Z" fill="#464646" stroke="#464646"/>
<path d="M435.946 170.968V204.472H427.427V170.968H435.946Z" fill="#464646" stroke="#464646"/>
<path d="M431.152 173.044L427.385 180.806L418.81 176.644L422.575 168.884L431.152 173.044Z" fill="#464646" stroke="#464646"/>
<path d="M801.218 195.954V220.535H727.562L723.691 216.664V195.954H801.218Z" fill="#464646" stroke="#464646"/>
<path d="M910.559 316.397C912.657 316.397 914.357 318.098 914.357 320.196C914.357 322.294 912.657 323.995 910.559 323.995C908.461 323.995 906.76 322.294 906.76 320.196C906.76 318.098 908.461 316.397 910.559 316.397Z" fill="#464646" stroke="#464646"/>
<path d="M840.025 381.853C841.273 381.853 842.285 382.865 842.285 384.113C842.285 385.361 841.273 386.373 840.025 386.373C838.777 386.373 837.765 385.361 837.764 384.113C837.764 382.865 838.777 381.853 840.025 381.853Z" fill="#464646" stroke="#464646"/>
<path d="M842.326 378.173C843.32 378.173 844.126 378.978 844.126 379.972C844.126 380.966 843.32 381.772 842.326 381.772C841.332 381.772 840.526 380.966 840.526 379.972C840.526 378.978 841.332 378.173 842.326 378.173Z" fill="#464646" stroke="#464646"/>
<path d="M485.823 497.072V542.88M514.973 497.072V542.88M552.453 492.312H657.751M689.876 628.546H727.95" stroke="#464646"/>
<path d="M775.512 796.833V804.757H718.913V796.833H775.512ZM751.192 794.994V795.833H746.671V794.994H751.192ZM777.896 709.954V718.472H753.436V709.954H777.896ZM742.383 709.954V718.472H717.742V709.954H742.383Z" fill="#464646" stroke="#464646"/>
<path d="M627 690H645V703H666.08V711L657.196 710.814V725.473H666.08V745.743H655.292L655 761H619V703H627V690Z" fill="#1D1D1D" fill-opacity="0.5"/>
<path d="M879.746 425.588V582.833H879.557V425.588H879.746Z" fill="#464646" stroke="#464646"/>
<path d="M844.552 304.322H867.753V251.375M291.288 567.866H303.186V545.259" stroke="#464646"/>
</g>
</g>
<mask id="mask8_377_8177" style="mask-type:alpha" maskUnits="userSpaceOnUse" x="103" y="155" width="818" height="699">
<path opacity="0.8" fill-rule="evenodd" clip-rule="evenodd" d="M115.281 223.781H157.044L166.255 170.353L220.297 165.439V161.756H251.002V177.107H260.829V164.825H285.393V160.527H289.691V158.071H301.36V160.527H335.75V179.564H339.435V170.967H436.465V212.111H438.922V208.426H532.881L535.951 199.215V155H604.732V159.914H610.258L611.488 158.07H656.317V164.825H658.774V158.071H716.501V155H763.787V188.163H753.962V195.531H832.568L857.747 201.673V230.537H864.502V228.08H901.963V315.284H915.473V349.674H921V376.081H915.473V416.613H909.947V425.21H906.876V469.426H909.947V492.762H906.876V536.978H909.947V582.423H906.876V626.639H831.954V676.997H845.465V708.316H838.709V712.615H845.465V753.146H838.709V766.042H844.237V799.819L838.709 799.205V802.276H777.912V797.977H776.07V805.347H718.342V797.977H706.675V802.276H683.952V797.977H678.425V802.276H631.137V761.744H613.328V805.347H556.216L550.689 794.906L542.092 799.205L539.021 805.347L474.539 837.894H467.783L456.73 843.421L461.642 853.247L335.749 812.101V809.646H322.239L285.391 734.723H229.507L228.279 675.154H291.533V478.024H307.499L304.43 473.111H244.246V464.514H219.682V473.111H162.569V388.363L164.411 385.906H152.744V347.217L161.955 341.076V337.391L160.112 336.164V320.81L161.955 319.582V315.284H110.37L109.141 313.442L106.685 233.606H103V231.151L113.441 221.324H115.282L115.281 223.781ZM260.213 196.76V204.129H335.749V197.988H339.434V206.586H398.388V213.341H395.318V256.943L404.53 266.155H437.077V229.921H438.306V234.834H487.435V236.063H438.306V266.155H458.571L460.414 267.997H606.574V216.411L604.117 214.569L603.503 193.075H605.345L604.731 186.319H609.029L610.257 188.163H656.93L656.316 180.793H658.773L659.387 185.707H701.146V188.163H737.993V195.531H676.582L658.773 199.216V220.71L671.054 221.939L676.582 274.139H660.001V289.491H676.582V301.773H658.773V338.005L661.229 339.848V377.924L624.997 395.733H622.54L620.698 393.89H600.432L599.204 395.733H593.062V394.504H542.706V395.733H505.858L488.663 360.113V342.918H491.12V333.707H489.892L489.277 271.682H392.861V259.399H391.634L390.406 223.781H333.906V205.358H251.615V196.76H260.213ZM190.204 240.976H209.856V245.889H195.117V260.627H190.204V240.976ZM267.582 240.976V260.627H262.67V245.889H247.931V240.976H267.582ZM333.906 263.084H343.733V276.594H333.906V263.084ZM190.204 323.267H209.856V318.354H195.117V303.615H190.204V323.267ZM267.582 303.615H262.67V318.354H247.931V323.267H267.582V303.615ZM289.076 385.906H261.442V388.363H267.582V404.33L279.865 427.666H297.06V426.438H310.57V427.666H328.993V475.567L325.309 476.795V478.024H348.646V495.219H367.069V512.414H381.808V496.447H394.089V485.392H390.406V486.622H386.721V485.392H381.808V417.841H395.318V416.613L391.634 415.998V340.462H447.518V333.093H448.132V324.495H447.518V319.582H375.052L349.873 315.897H333.292V385.906H316.711V387.135H289.076V385.906ZM416.197 492.762V474.339H414.969V567.685H404.53L401.459 572.598H408.829V584.88H440.148V596.547H454.887V584.88H487.435V580.581H468.398V554.788H476.381V543.734H468.398V497.061H486.207V492.762H416.197ZM336.977 585.494L341.276 567.685H368.297V534.522H369.526V567.685H379.351L383.036 572.598H375.666V636.464H395.932V624.183H407.6V636.464H454.273L473.311 645.677V663.486H467.169V746.391H473.311V762.973L457.344 771.57H437.077V767.271H357.243V762.973L361.542 761.744V748.233L349.873 742.093V699.105H345.575V657.345H361.542V632.166H336.977V585.494ZM215.997 421.526H185.906V389.591L183.449 387.749V385.906H246.702V388.363H236.42V404.944H215.997V421.526ZM418.04 401.873L416.197 403.716V437.492H414.969V417.841H408.829V416.613H412.514V379.766H443.219V360.113H448.132V396.961L451.817 400.032V403.101H445.061L443.833 401.873H418.04ZM706.06 753.146V765.428H718.341V753.146H706.06ZM755.189 753.146H742.906V765.428H755.189V753.146ZM792.035 753.146H779.753V765.428H792.035V753.146ZM596.747 606.988V627.253H582.623V624.183H556.83V627.253H540.863L537.793 629.71V584.265H514.456V579.966H532.265V523.468H520.598V497.061H514.456V492.148H552.531V519.783H734.922V360.115H735.536V355.201H734.922V349.06H720.798V346.603H715.885L713.429 342.304V271.682H712.201V268.611L732.467 250.802L733.081 252.029H736.766V250.802H763.786L765.014 253.258H792.65L797.563 250.802H815.372L832.567 268.611V285.192H844.236V304.844H839.322V346.603H836.866V387.749H844.236V524.082L836.866 530.224H765.014V549.261H741.064V606.988H736.152V633.395H725.711V608.83H682.723L680.881 610.672H671.054V606.988H596.747ZM682.109 753.146H685.18V765.428H682.109V776.483H653.859V743.934H664.3V704.631H644.034V674.54H669.827V649.361H682.109V674.54H725.097L726.325 672.698H735.536L737.993 674.54H795.106V583.037H880.468V601.46H806.16V714.458L778.524 714.457V710.158H752.732V714.457H742.906V710.158H717.113V714.457H682.109V753.146Z" fill="#1C1C1C"/>
</mask>
<g mask="url(#mask8_377_8177)">
<path d="M261.543 244.236H196.103C194.789 244.236 193.723 245.301 193.723 246.616V318.005C193.723 319.319 194.789 320.384 196.103 320.384H261.543C262.857 320.384 263.922 319.319 263.922 318.005V246.616C263.922 245.301 262.857 244.236 261.543 244.236Z" stroke="#4C4C4C" stroke-opacity="0.25" stroke-width="1.6"/>
</g>
<path d="M576.329 737.445H510.238C508.924 737.445 507.858 738.51 507.858 739.825V787.514C507.858 788.828 508.924 789.893 510.238 789.893H576.329C577.643 789.893 578.708 788.828 578.708 787.514V739.825C578.708 738.51 577.643 737.445 576.329 737.445Z" stroke="#4C4C4C" stroke-opacity="0.25" stroke-width="1.6"/>
<path d="M345.456 640.911V653.518C345.456 654.183 344.917 654.722 344.251 654.722C343.586 654.722 343.047 655.261 343.047 655.926V700.516C343.047 701.181 343.586 701.72 344.251 701.72C344.917 701.72 345.456 702.259 345.456 702.924V753.929C345.456 754.56 345.205 755.165 344.759 755.612C344.312 756.058 343.707 756.309 343.076 756.309H302.234C301.367 756.309 300.569 755.837 300.151 755.078L287.804 732.694C287.599 732.322 287.297 732.011 286.93 731.795C286.564 731.578 286.146 731.464 285.721 731.464H235.051C234.432 731.464 233.837 731.223 233.393 730.791C232.949 730.359 232.691 729.771 232.673 729.152L231.275 680.084C231.266 679.766 231.321 679.45 231.436 679.153C231.552 678.857 231.725 678.586 231.947 678.358C232.169 678.13 232.434 677.949 232.727 677.825C233.02 677.701 233.335 677.637 233.653 677.637H293.389C294.02 677.637 294.626 677.386 295.072 676.94C295.518 676.494 295.769 675.888 295.769 675.257V640.911C295.769 640.28 296.02 639.674 296.466 639.228C296.912 638.782 297.517 638.531 298.148 638.531H343.076C343.707 638.531 344.312 638.782 344.759 639.228C345.205 639.674 345.456 640.28 345.456 640.911Z" stroke="#464646" stroke-width="1.5"/>
<path d="M898.917 315.024V312.423C898.917 311.792 898.666 311.187 898.22 310.741C897.774 310.294 897.169 310.044 896.537 310.044H848.389C847.758 310.044 847.153 310.294 846.707 310.741C846.26 311.187 846.01 311.792 846.01 312.423V410.258C846.01 410.889 846.26 411.495 846.707 411.941C847.153 412.387 847.758 412.638 848.389 412.638H910.8C911.431 412.638 912.036 412.387 912.482 411.941C912.929 411.495 913.179 410.889 913.179 410.258V319.784C913.179 319.152 912.929 318.547 912.482 318.101C912.036 317.655 911.431 317.404 910.8 317.404H901.297C900.666 317.404 900.06 317.153 899.614 316.707C899.168 316.261 898.917 315.655 898.917 315.024Z" stroke="#464646" stroke-width="1.5"/>
</g>
<defs>
<filter id="filter0_i_377_8177" x="103" y="155" width="818" height="698.248" filterUnits="userSpaceOnUse" color-interpolation-filters="sRGB">
<feFlood flood-opacity="0" result="BackgroundImageFix"/>
<feBlend mode="normal" in="SourceGraphic" in2="BackgroundImageFix" result="shape"/>
<feColorMatrix in="SourceAlpha" type="matrix" values="0 0 0 0 0 0 0 0 0 0 0 0 0 0 0 0 0 0 127 0" result="hardAlpha"/>
<feOffset/>
<feGaussianBlur stdDeviation="3.5"/>
<feComposite in2="hardAlpha" operator="arithmetic" k2="-1" k3="1"/>
<feColorMatrix type="matrix" values="0 0 0 0 0.05 0 0 0 0 0.05 0 0 0 0 0.05 0 0 0 0.9 0"/>
<feBlend mode="normal" in2="shape" result="effect1_innerShadow_377_8177"/>
</filter>
<filter id="filter1_di_377_8177" x="124.76" y="136.229" width="810.097" height="722.618" filterUnits="userSpaceOnUse" color-interpolation-filters="sRGB">
<feFlood flood-opacity="0" result="BackgroundImageFix"/>
<feColorMatrix in="SourceAlpha" type="matrix" values="0 0 0 0 0 0 0 0 0 0 0 0 0 0 0 0 0 0 127 0" result="hardAlpha"/>
<feOffset/>
<feGaussianBlur stdDeviation="10"/>
<feComposite in2="hardAlpha" operator="out"/>
<feColorMatrix type="matrix" values="0 0 0 0 0.077 0 0 0 0 0.077 0 0 0 0 0.077 0 0 0 0.9 0"/>
<feBlend mode="normal" in2="BackgroundImageFix" result="effect1_dropShadow_377_8177"/>
<feBlend mode="normal" in="SourceGraphic" in2="effect1_dropShadow_377_8177" result="shape"/>
<feColorMatrix in="SourceAlpha" type="matrix" values="0 0 0 0 0 0 0 0 0 0 0 0 0 0 0 0 0 0 127 0" result="hardAlpha"/>
<feOffset/>
<feGaussianBlur stdDeviation="2"/>
<feComposite in2="hardAlpha" operator="arithmetic" k2="-1" k3="1"/>
<feColorMatrix type="matrix" values="0 0 0 0 0.433 0 0 0 0 0.433 0 0 0 0 0.433 0 0 0 0.6 0"/>
<feBlend mode="normal" in2="shape" result="effect2_innerShadow_377_8177"/>
</filter>
<filter id="filter2_i_377_8177" x="103" y="155" width="818" height="698.248" filterUnits="userSpaceOnUse" color-interpolation-filters="sRGB">
<feFlood flood-opacity="0" result="BackgroundImageFix"/>
<feBlend mode="normal" in="SourceGraphic" in2="BackgroundImageFix" result="shape"/>
<feColorMatrix in="SourceAlpha" type="matrix" values="0 0 0 0 0 0 0 0 0 0 0 0 0 0 0 0 0 0 127 0" result="hardAlpha"/>
<feOffset/>
<feGaussianBlur stdDeviation="3.5"/>
<feComposite in2="hardAlpha" operator="arithmetic" k2="-1" k3="1"/>
<feColorMatrix type="matrix" values="0 0 0 0 0.05 0 0 0 0 0.05 0 0 0 0 0.05 0 0 0 0.9 0"/>
<feBlend mode="normal" in2="shape" result="effect1_innerShadow_377_8177"/>
</filter>
<filter id="filter3_di_377_8177" x="124.76" y="136.229" width="810.097" height="722.618" filterUnits="userSpaceOnUse" color-interpolation-filters="sRGB">
<feFlood flood-opacity="0" result="BackgroundImageFix"/>
<feColorMatrix in="SourceAlpha" type="matrix" values="0 0 0 0 0 0 0 0 0 0 0 0 0 0 0 0 0 0 127 0" result="hardAlpha"/>
<feOffset/>
<feGaussianBlur stdDeviation="10"/>
<feComposite in2="hardAlpha" operator="out"/>
<feColorMatrix type="matrix" values="0 0 0 0 0.077 0 0 0 0 0.077 0 0 0 0 0.077 0 0 0 0.9 0"/>
<feBlend mode="normal" in2="BackgroundImageFix" result="effect1_dropShadow_377_8177"/>
<feBlend mode="normal" in="SourceGraphic" in2="effect1_dropShadow_377_8177" result="shape"/>
<feColorMatrix in="SourceAlpha" type="matrix" values="0 0 0 0 0 0 0 0 0 0 0 0 0 0 0 0 0 0 127 0" result="hardAlpha"/>
<feOffset/>
<feGaussianBlur stdDeviation="2"/>
<feComposite in2="hardAlpha" operator="arithmetic" k2="-1" k3="1"/>
<feColorMatrix type="matrix" values="0 0 0 0 0.473 0 0 0 0 0.473 0 0 0 0 0.473 0 0 0 0.6 0"/>
<feBlend mode="normal" in2="shape" result="effect2_innerShadow_377_8177"/>
</filter>
<linearGradient id="paint0_linear_377_8177" x1="539.02" y1="642.229" x2="539.02" y2="597.161" gradientUnits="userSpaceOnUse">
<stop stop-color="#262626"/>
<stop offset="1" stop-color="#262626" stop-opacity="0"/>
</linearGradient>
<linearGradient id="paint1_linear_377_8177" x1="754.721" y1="207.352" x2="801.719" y2="207.352" gradientUnits="userSpaceOnUse">
<stop stop-color="#2B2B2B"/>
<stop offset="1" stop-color="#2B2B2B" stop-opacity="0"/>
</linearGradient>
<clipPath id="clip0_377_8177">
<rect width="1000" height="1000" fill="white"/>
</clipPath>
</defs>
</svg>
