<svg width="372" height="147" viewBox="0 0 372 147" fill="none" xmlns="http://www.w3.org/2000/svg">
<path d="M0 32C0 14.3269 14.3269 0 32 0H180V115C180 132.673 165.673 147 148 147H0V32Z" fill="white"/>
<path d="M216.512 115H203.84V45.88C203.84 33.08 214.08 24.248 228.672 24.248C243.136 24.248 253.376 33.208 253.376 45.88V115H240.704V103.992C240.704 97.208 236.352 94.264 228.672 94.264C220.992 94.264 216.512 97.208 216.512 103.992V115ZM240.704 84.024V46.648C240.704 39.864 236.352 36.92 228.672 36.92C220.992 36.92 216.512 39.864 216.512 46.648V84.024C219.968 82.488 224.192 81.592 228.672 81.592C233.152 81.592 237.248 82.488 240.704 84.024ZM275.042 94.264V115H262.37V25.4H285.282C299.234 25.4 310.626 33.464 310.626 45.624V74.04C310.626 79.672 308.066 84.536 304.098 87.992C308.066 91.448 310.626 96.184 310.626 101.816V115H297.954V106.04C297.954 99.128 293.346 94.264 286.69 94.264H275.042ZM275.042 38.072V81.592H286.69C293.346 81.592 297.954 76.728 297.954 69.816V49.848C297.954 42.936 293.346 38.072 286.69 38.072H275.042ZM355.204 81.592H367.876V94.776C367.876 107.448 357.636 116.408 343.172 116.408C328.58 116.408 318.34 107.576 318.34 94.776V45.88C318.34 33.08 328.58 24.248 343.172 24.248C357.636 24.248 367.876 33.208 367.876 45.88V60.472H355.204V46.648C355.204 39.864 350.852 36.92 343.172 36.92C335.492 36.92 331.012 39.864 331.012 46.648V94.008C331.012 100.792 335.492 103.736 343.172 103.736C350.852 103.736 355.204 100.792 355.204 94.008V81.592Z" fill="white"/>
<path d="M73.704 81.592H86.376V94.776C86.376 107.448 76.136 116.408 61.672 116.408C47.08 116.408 36.84 107.576 36.84 94.776V45.88C36.84 33.08 47.08 24.248 61.672 24.248C76.136 24.248 86.376 33.208 86.376 45.88V60.472H73.704V46.648C73.704 39.864 69.352 36.92 61.672 36.92C53.992 36.92 49.512 39.864 49.512 46.648V94.008C49.512 100.792 53.992 103.736 61.672 103.736C69.352 103.736 73.704 100.792 73.704 94.008V81.592ZM125.194 83.384H109.194C101.13 83.384 94.09 76.344 94.09 68.28V45.88C94.09 33.08 104.074 24.248 118.282 24.248C132.362 24.248 142.346 33.208 142.346 45.88V60.472H129.674V46.648C129.674 39.864 125.578 36.92 118.282 36.92C110.986 36.92 106.762 39.864 106.762 46.648V61.496C106.762 68.28 108.682 70.712 114.186 70.712H128.65C136.842 70.712 142.346 76.216 142.346 84.408V94.776C142.346 107.448 132.362 116.408 118.282 116.408C104.074 116.408 94.09 107.576 94.09 94.776V89.4H106.762V94.008C106.762 100.792 110.986 103.736 118.282 103.736C125.578 103.736 129.674 100.792 129.674 94.008V87.864C129.674 85.176 127.882 83.384 125.194 83.384Z" fill="black"/>
</svg>
